<svg width="300" height="597" viewBox="0 0 300 597" fill="none" xmlns="http://www.w3.org/2000/svg">
<path d="M276.265 7.58448H30.4147C19.4422 7.58448 10.5472 16.4801 10.5472 27.4534V570.365C10.5472 581.338 19.4422 590.234 30.4147 590.234H276.265C287.238 590.234 296.133 581.338 296.133 570.365V27.4534C296.133 16.4801 287.238 7.58448 276.265 7.58448Z" fill="#FDFEFF"/>
<path d="M272.828 597H27.1788C12.1903 597 0 584.866 0 569.956V27.0444C0 12.1337 12.1903 0 27.1788 0H272.821C287.81 0 300 12.1337 300 27.0444V569.956C300 584.866 287.81 597 272.821 597H272.828ZM27.1788 14.351C20.1473 14.351 14.4217 20.0483 14.4217 27.0444V569.956C14.4217 576.952 20.1473 582.649 27.1788 582.649H272.821C279.853 582.649 285.578 576.952 285.578 569.956V27.0444C285.578 20.0483 279.853 14.351 272.821 14.351H27.1788Z" fill="#C0004D"/>
<path d="M159.722 133.686C159.571 132.144 159.414 130.465 159.249 128.685C157.699 112.009 155.575 89.1769 149.957 77.1651C147.804 72.5585 142.488 67.8442 135.464 67.6863C135.277 67.6863 135.09 67.6863 134.911 67.6863C125.734 67.6863 122.211 73.032 120.497 75.6296C120.339 75.8664 120.188 76.1031 120.037 76.3184C116.12 81.9296 113.982 90.7483 111.714 100.084C109.856 107.761 107.933 115.697 105.372 119.522C103.399 122.471 101.354 124.43 97.7805 124.444C94.2074 124.43 92.1554 122.471 90.1894 119.522C87.628 115.697 85.7051 107.761 83.8467 100.084C81.5866 90.7483 79.4485 81.9296 75.5238 76.3184C75.3731 76.096 75.2152 75.8664 75.0646 75.6296C73.3498 73.032 69.8268 67.6863 60.6501 67.6863C60.4707 67.6863 60.2841 67.6863 60.0976 67.6863C53.0733 67.8513 47.7566 72.5656 45.6041 77.1651C39.9861 89.1769 37.8623 112.016 36.3125 128.685C36.1475 130.465 35.9897 132.144 35.839 133.686C34.4686 147.786 33.8444 184.195 33.6506 197.462C33.6148 200.146 35.7744 202.349 38.4722 202.377L40.0435 202.392C42.8489 202.42 45.1521 200.196 45.1952 197.397C45.3889 184.094 46.0203 148.202 47.3261 134.784C47.4768 133.227 47.6347 131.527 47.7997 129.733C49.1916 114.786 51.2867 92.2049 56.0652 82.0014C56.3379 81.413 57.8733 79.2101 60.363 79.1527C63.5416 79.081 64.0582 79.8488 65.4142 81.9153C65.6295 82.2382 65.8376 82.5611 66.0456 82.8553C68.7291 86.7013 70.8026 95.233 72.6251 102.76C74.8206 111.808 76.887 120.354 80.5821 125.872C82.2395 128.348 87.2907 135.889 97.7734 135.911H97.7949C108.278 135.889 113.322 128.348 114.986 125.872C118.681 120.354 120.755 111.808 122.943 102.76C124.766 95.233 126.839 86.7013 129.523 82.8553C129.731 82.5539 129.939 82.2382 130.154 81.9153C131.51 79.8559 132.027 79.0882 135.205 79.1527C137.695 79.2101 139.23 81.413 139.503 82.0014C144.282 92.2121 146.377 114.793 147.769 129.733C147.934 131.527 148.091 133.22 148.242 134.784C149.555 148.267 150.179 184.417 150.373 197.577C150.409 200.275 152.633 202.42 155.345 202.392L156.988 202.37C159.744 202.341 161.954 200.088 161.91 197.347C161.717 183.994 161.092 147.736 159.722 133.672V133.686Z" fill="#C0004D"/>
<path d="M255.408 198.273L253.915 81.1116C253.908 80.4658 253.549 79.8559 252.954 79.5976C252.559 79.4254 252.057 79.2962 251.461 79.2245C251.052 79.1743 250.019 79.2245 249.524 80.1501L249.237 80.7242L183.608 196.687C181.634 200.131 179.231 202.793 175.421 201.789C171.618 200.784 169.064 197.484 169.064 193.566L167.622 72.0921C167.622 69.9753 169.344 68.2603 171.468 68.2603H175.945C177.717 68.2603 179.152 69.6883 179.152 71.4534L180.594 171.293C180.594 172.85 182.675 173.388 183.435 172.032L239.02 75.3641C240.527 72.1208 245.076 66.8611 252.882 67.837C262.037 68.9779 265.072 75.7803 265.395 79.2245L265.417 79.6909L266.916 197.57C266.952 200.16 264.864 202.284 262.267 202.313L259.591 202.349C257.295 202.377 255.415 200.555 255.386 198.273H255.408Z" fill="#C0004D"/>
<path d="M195.827 372.393H44.8149C40.187 372.393 37.561 367.126 40.3592 363.46L129.774 249.621C132.959 246.069 140.873 238.212 144.762 236.253C156.673 230.247 171.561 229.63 181.211 231.79C183.457 232.292 189.929 234.724 189.929 234.724C231.536 251.077 252.552 298.794 238.876 341.173C232.871 359.779 215.479 372.4 195.834 372.4L195.827 372.393Z" fill="#657A8C"/>
<path d="M92.9016 344.976C102.364 344.976 110.035 337.343 110.035 327.927C110.035 318.511 102.364 310.878 92.9016 310.878C83.4388 310.878 75.7677 318.511 75.7677 327.927C75.7677 337.343 83.4388 344.976 92.9016 344.976Z" fill="#F7F7F7"/>
<path d="M99.8613 338.582C103.404 338.582 106.276 335.723 106.276 332.196C106.276 328.669 103.404 325.81 99.8613 325.81C96.3187 325.81 93.4469 328.669 93.4469 332.196C93.4469 335.723 96.3187 338.582 99.8613 338.582Z" fill="#A5195F"/>
<path d="M132.859 344.976C142.322 344.976 149.993 337.343 149.993 327.927C149.993 318.511 142.322 310.878 132.859 310.878C123.396 310.878 115.725 318.511 115.725 327.927C115.725 337.343 123.396 344.976 132.859 344.976Z" fill="#F7F7F7"/>
<path d="M139.812 338.582C143.354 338.582 146.226 335.723 146.226 332.196C146.226 328.669 143.354 325.81 139.812 325.81C136.269 325.81 133.397 328.669 133.397 332.196C133.397 335.723 136.269 338.582 139.812 338.582Z" fill="#A5195F"/>
<path d="M114.692 269.102C109.268 254.227 94.9393 243.6 78.1139 243.6C56.6249 243.6 39.2112 260.929 39.2112 282.312C39.2112 302.339 54.4939 318.807 74.0816 320.816L114.699 269.109L114.692 269.102Z" fill="#7C8C99"/>
<path d="M110.76 274.24C106.426 266.469 98.1034 261.209 88.5463 261.209C74.5265 261.209 63.1541 272.518 63.1541 286.474C63.1541 298.17 71.1399 308 81.9812 310.878L110.76 274.24Z" fill="#A5195F"/>
<path d="M170.915 251.407C150.61 251.407 133.95 266.885 132.177 286.625L165.598 328.465C167.342 328.702 169.114 328.838 170.922 328.838C192.411 328.838 209.825 311.509 209.825 290.126C209.825 268.743 192.404 251.414 170.922 251.414L170.915 251.407Z" fill="#7C8C99"/>
<path d="M162.212 272.41C149.799 272.41 139.474 281.272 137.264 292.989L161.164 322.911C161.509 322.925 161.86 322.94 162.212 322.94C176.232 322.94 187.604 311.631 187.604 297.675C187.604 283.719 176.239 272.41 162.212 272.41Z" fill="#A5195F"/>
<path d="M56.8258 342.493L40.3592 363.46C37.561 367.126 40.187 372.393 44.8149 372.393H75.5166C74.1677 360.238 67.4304 348.965 56.833 342.493H56.8258Z" fill="#A5195F"/>
<path d="M52.9585 347.344L37.7332 335.411C37.1951 334.987 37.1018 334.205 37.5251 333.667L37.7547 333.38C38.1852 332.835 38.9816 332.741 39.5341 333.172L54.745 345.09L52.9585 347.344Z" fill="#37434C"/>
<path d="M56.8401 342.493L41.6148 330.56C41.0767 330.137 40.9834 329.355 41.4068 328.816L41.6364 328.529C42.0669 327.984 42.8633 327.891 43.4158 328.321L58.6267 340.24L56.8401 342.493Z" fill="#37434C"/>
<path d="M61.059 337.09L45.8337 325.157C45.2956 324.734 45.2023 323.951 45.6257 323.413L45.8553 323.126C46.2858 322.581 47.0822 322.488 47.6346 322.918L62.8456 334.837L61.059 337.09Z" fill="#37434C"/>
<path d="M75.5166 364.342L91.3231 376.332C91.8827 376.756 92.6863 376.648 93.1168 376.088L93.3464 375.787C93.7841 375.22 93.6693 374.409 93.1025 373.972L77.3103 361.996L75.5166 364.335V364.342Z" fill="#37434C"/>
<path d="M79.3624 359.269L95.1688 371.259C95.7285 371.683 96.5321 371.575 96.9626 371.015L97.1922 370.714C97.6299 370.147 97.5151 369.336 96.9482 368.899L81.1561 356.923L79.3624 359.262V359.269Z" fill="#37434C"/>
<path d="M83.6745 353.715L99.481 365.706C100.041 366.129 100.844 366.021 101.275 365.462L101.504 365.16C101.942 364.593 101.827 363.783 101.26 363.345L85.4683 351.369L83.6745 353.708V353.715Z" fill="#37434C"/>
<path d="M102.222 372.393H113.551C113.551 372.393 116.844 363.546 111.126 358.48C111.126 358.48 111.485 362.477 108.672 366.294C105.73 370.291 102.222 372.386 102.222 372.386V372.393Z" fill="#A5195F"/>
<path d="M181.563 372.393C178.14 370.083 175.945 366.545 175.945 362.57C175.945 357.949 178.908 353.916 183.321 351.713C184.131 351.312 184.662 350.501 184.662 349.597C184.662 348.527 183.586 347.803 182.582 348.176C176.002 350.616 171.403 356.141 171.403 362.57C171.403 366.287 172.953 369.702 175.521 372.393H181.563Z" fill="#7C8C99"/>
<path d="M196.343 475.225C188.465 475.225 179.769 473.783 171.984 469.219C156.228 459.97 150.474 440.661 152.942 426.367C155.188 413.344 166.761 402.537 176.504 398.993C181.764 397.077 186.987 396.567 190.754 396.51C193.739 396.467 196.049 399.107 195.633 402.049C195.274 404.589 193.129 406.505 190.553 406.563C187.69 406.627 183.801 407.036 179.977 408.428C174.086 410.574 164.58 418.302 162.893 428.075C161.43 436.556 163.998 452.873 177.114 460.58C190 468.143 208.311 464.849 217.093 461.706C229.958 457.107 241.122 444.995 245.506 435.408C253.277 418.424 250.27 403.85 245.872 390.64C240.828 375.507 224.706 362.01 224.548 361.888L231.544 354.799C232.275 355.394 249.474 369.537 255.458 387.476C260.265 401.906 263.931 419.371 254.697 439.563C249.596 450.714 236.724 465.351 220.508 471.156C218.758 471.781 208.541 475.239 196.343 475.239V475.225Z" fill="#657A8C"/>
<path d="M145.681 372.393C141.878 378.234 136.317 381.441 137.58 383.852C139.073 386.708 146.506 386.385 153.308 381.549C157.419 378.621 159.88 375.227 161.336 372.4H145.688L145.681 372.393Z" fill="#657A8C"/>
<path d="M175.83 372.393C172.027 378.234 166.467 381.441 167.729 383.852C169.222 386.708 176.655 386.385 183.457 381.549C187.568 378.621 190.029 375.227 191.486 372.4H175.837L175.83 372.393Z" fill="#657A8C"/>
<path d="M125.469 372.393C121.666 378.234 116.105 381.441 117.368 383.852C118.861 386.708 126.294 386.385 133.096 381.549C137.207 378.621 139.668 375.227 141.125 372.4H125.476L125.469 372.393Z" fill="#657A8C"/>
<path d="M34.4686 39.7163C34.9278 38.0803 35.4946 36.3223 36.169 34.4495L39.7781 24.5043H45.1521V45.2988H41.3278V34.758C41.3278 33.2153 41.3924 31.4214 41.5144 29.3836H41.3709C41.1915 29.972 40.9834 30.6393 40.7467 31.3712C40.5099 32.1103 40.2588 32.835 39.9933 33.5454L35.6668 45.2988H33.1986L28.8721 33.5454C28.6138 32.8278 28.3627 32.1031 28.1187 31.3712C27.8819 30.6321 27.6739 29.972 27.4945 29.3836H27.351C27.473 31.2994 27.5375 33.0861 27.5375 34.7437V45.2988H23.7133V24.5043H29.0586L32.6677 34.4064C33.2704 36.0568 33.8372 37.8291 34.3681 39.7235H34.4614L34.4686 39.7163Z" fill="#C0004D"/>
<path d="M64.4097 24.4971H68.4277V45.2916H64.6035V35.7195C64.6035 34.5284 64.668 32.6054 64.79 29.9505H64.7254C64.0079 31.1631 62.7595 33.0359 60.9729 35.5617L54.1639 45.2916H50.1459V24.4971H53.9701V34.0692C53.9701 35.5904 53.9056 37.5062 53.7836 39.8167H53.8482C54.5154 38.7189 55.7424 36.882 57.5361 34.3131L64.4097 24.4899V24.4971Z" fill="#C0004D"/>
<path d="M260.157 553.129C259.698 554.765 259.131 556.523 258.457 558.396L254.848 568.341H249.474V547.547H253.298V558.087C253.298 559.63 253.234 561.424 253.112 563.462H253.255C253.434 562.873 253.642 562.206 253.879 561.474C254.116 560.735 254.367 560.01 254.633 559.3L258.959 547.547H261.427L265.754 559.3C266.012 560.018 266.263 560.742 266.507 561.474C266.744 562.213 266.952 562.873 267.131 563.462H267.275C267.153 561.546 267.088 559.759 267.088 558.102V547.547H270.913V568.341H265.567L261.958 558.439C261.356 556.789 260.789 555.016 260.258 553.122H260.165L260.157 553.129Z" fill="#C0004D"/>
<path d="M230.216 568.341H226.198V547.547H230.022V557.119C230.022 558.31 229.958 560.233 229.836 562.888H229.901C230.618 561.675 231.866 559.802 233.653 557.277L240.462 547.547H244.48V568.341H240.656V558.769C240.656 557.248 240.72 555.332 240.842 553.021H240.778C240.11 554.119 238.884 555.956 237.09 558.525L230.216 568.348V568.341Z" fill="#C0004D"/>
<path d="M68.399 520.861C69.1811 518.055 70.1569 515.049 71.3192 511.834L77.5041 494.792H86.7096V530.419H80.1516V512.365C80.1516 509.717 80.2593 506.646 80.4745 503.152H80.2306C79.9292 504.164 79.5705 505.297 79.1615 506.56C78.7525 507.823 78.322 509.064 77.8772 510.291L70.4654 530.419H66.2394L58.8276 510.291C58.3828 509.064 57.9523 507.823 57.5433 506.56C57.1343 505.297 56.7756 504.164 56.4742 503.152H56.2303C56.4455 506.438 56.5531 509.495 56.5531 512.336V530.419H49.9952V494.792H59.1505L65.3353 511.755C66.3685 514.575 67.3443 517.61 68.2555 520.861H68.4134H68.399Z" fill="#C0004D"/>
<path d="M118.932 494.792H125.813V530.419H119.255V514.016C119.255 511.978 119.363 508.684 119.578 504.135H119.47C118.236 506.209 116.098 509.416 113.049 513.75L101.382 530.419H94.5016V494.792H101.06V511.196C101.06 513.807 100.952 517.087 100.737 521.048H100.844C101.985 519.168 104.095 516.025 107.158 511.619L118.932 494.792Z" fill="#C0004D"/>
<path d="M175.973 530.419H133.612V494.792H140.17V524.958H151.514V494.792H158.072V524.958H169.415V494.792H175.973V530.419Z" fill="#37434C"/>
<path d="M183.765 530.419V494.792H190.323V511.009H190.431L203.949 494.792H212.085L197.154 512.444L213.319 530.419H204.917L190.438 514.338H190.331V530.419H183.765Z" fill="#37434C"/>
<path d="M224.648 521.342L221.14 530.419H214.151L228.365 494.792H234.363L248.577 530.419H241.646L238.137 521.342H224.648ZM231.336 503.367C230.08 507.091 228.968 510.213 227.985 512.71L226.758 515.881H236.014L234.787 512.71C233.818 510.184 232.699 507.07 231.436 503.367H231.328H231.336Z" fill="#37434C"/>
</svg>
