<svg width="300" height="597" viewBox="0 0 300 597" fill="none" xmlns="http://www.w3.org/2000/svg">
<path d="M274.156 7.17548H28.3053C17.3328 7.17548 8.43777 16.0711 8.43777 27.0444V569.956C8.43777 580.929 17.3328 589.825 28.3053 589.825H274.156C285.128 589.825 294.023 580.929 294.023 569.956V27.0444C294.023 16.0711 285.128 7.17548 274.156 7.17548Z" fill="#FDFEFF"/>
<path d="M272.828 597H27.1788C12.1903 597 0 584.866 0 569.956V27.0444C0 12.1337 12.1903 0 27.1788 0H272.821C287.81 0 300 12.1337 300 27.0444V569.956C300 584.866 287.81 597 272.821 597H272.828ZM27.1788 14.351C20.1473 14.351 14.4217 20.0483 14.4217 27.0444V569.956C14.4217 576.952 20.1473 582.649 27.1788 582.649H272.821C279.853 582.649 285.578 576.952 285.578 569.956V27.0444C285.578 20.0483 279.853 14.351 272.821 14.351H27.1788Z" fill="#67BA31"/>
<path d="M132.995 532.026V496.4H139.553V512.616H139.661L153.179 496.4H161.315L146.384 514.051L162.549 532.026H154.147L139.668 515.946H139.56V532.026H132.995Z" fill="#37434C"/>
<path d="M173.871 522.942L170.363 532.019H163.374L177.588 496.393H183.586L197.8 532.019H190.869L187.36 522.942H173.871ZM180.558 504.967C179.303 508.691 178.19 511.813 177.207 514.31L175.981 517.481H185.236L184.009 514.31C183.041 511.784 181.921 508.67 180.659 504.967H180.551H180.558Z" fill="#37434C"/>
<path d="M115.015 472.929L114.821 445.935C114.807 444.09 116.084 442.584 117.67 442.569C119.255 442.555 120.554 444.033 120.568 445.877L120.762 472.871C120.776 474.715 119.499 476.222 117.914 476.237C116.328 476.251 115.029 474.773 115.015 472.929Z" fill="#231F20"/>
<path d="M101.978 470.317C99.9187 470.317 98.4693 468.186 99.2873 466.27C99.8756 464.899 100.758 463.601 101.935 462.417C105.666 458.628 112.087 456.282 118.703 456.282H118.767C126.236 456.296 134.409 460.056 137.178 465.811C138.111 467.748 136.69 470.008 134.567 470.016H134.301C133.239 470.016 132.328 469.355 131.862 468.387C130.312 465.158 124.486 462.28 118.76 462.266H118.71C113.68 462.266 108.744 463.981 106.118 466.65C105.515 467.26 105.063 467.892 104.769 468.523C104.281 469.592 103.277 470.31 102.114 470.317H101.978Z" fill="#231F20"/>
<path d="M159.622 471.996L159.428 445.002C159.414 443.158 160.691 441.651 162.276 441.636C163.862 441.622 165.161 443.1 165.175 444.944L165.369 471.939C165.383 473.783 164.106 475.29 162.52 475.304C160.935 475.318 159.636 473.84 159.622 471.996Z" fill="#231F20"/>
<path d="M146.585 469.384C144.525 469.384 143.076 467.253 143.894 465.337C144.482 463.967 145.365 462.668 146.542 461.484C150.273 457.695 156.694 455.349 163.31 455.349H163.374C170.843 455.363 179.016 459.123 181.785 464.878C182.718 466.815 181.297 469.076 179.173 469.083H178.908C177.846 469.083 176.935 468.423 176.468 467.454C174.919 464.225 169.093 461.348 163.367 461.333H163.317C158.287 461.333 153.351 463.048 150.725 465.717C150.122 466.327 149.67 466.959 149.376 467.59C148.888 468.659 147.883 469.377 146.721 469.384H146.585Z" fill="#231F20"/>
<path d="M155.381 434.935L158.337 441.723C159.636 445.052 164.357 445.346 165.885 442.11C165.9 442.089 165.907 442.06 165.921 442.038L177.308 415.059L149.856 422.04L155.381 434.935Z" fill="#2B388C"/>
<path d="M124.328 435.107L121.372 441.895C120.073 445.224 115.352 445.518 113.824 442.282C113.809 442.261 113.802 442.232 113.788 442.211L101.031 415.231L129.853 422.212L124.328 435.107Z" fill="#2B388C"/>
<path d="M268.387 449.3L249.416 430.888L215.644 450.993L225.524 467.396C227.038 469.858 228.788 471.73 231.766 471.73C235.346 471.73 238.252 469.076 238.252 465.803C238.252 464.576 238.252 463.751 237.571 462.761L237.37 462.438C238.015 464.863 240.261 466.571 242.859 466.571C245.965 466.571 248.477 464.017 248.477 460.86C248.477 459.819 248.197 458.85 247.723 458.018L247.831 457.975C248.649 460.228 250.923 461.85 253.607 461.85C256.979 461.85 259.713 459.295 259.713 456.138C259.713 456.109 259.713 455.708 259.713 455.679C260.774 456.605 262.252 457.552 263.881 457.552C267.11 457.552 269.736 455.291 269.736 452.507C269.736 451.288 269.234 450.161 268.387 449.293V449.3Z" fill="#2B388C"/>
<path d="M257.474 438.659L240.778 422.09L208.261 438.716L218.148 455.227C219.712 457.745 221.14 459.195 223.874 459.195C227.16 459.195 229.822 456.77 229.822 453.77C229.822 452.644 229.721 451.488 229.075 450.62C229.671 452.837 231.666 454.473 234.048 454.473C236.896 454.473 239.206 452.134 239.206 449.25C239.206 448.303 238.955 447.413 238.518 446.645L238.618 446.602C239.364 448.668 241.452 450.154 243.92 450.154C247.013 450.154 249.524 447.815 249.524 444.93C249.524 444.901 249.524 444.88 249.524 444.851C250.5 445.698 251.849 446.229 253.348 446.229C256.312 446.229 258.715 444.162 258.715 441.608C258.715 440.488 258.249 439.462 257.481 438.666L257.474 438.659Z" fill="#0A110A"/>
<path d="M244.466 425.7L227.504 409.239L199.471 424.466L208.907 439.792L209.158 440.244C210.234 442.045 211.848 443.725 214.302 443.725C217.251 443.725 219.647 441.593 219.647 438.96C219.647 437.97 219.31 437.059 218.736 436.298L218.98 436.197C219.511 438.149 221.305 439.584 223.443 439.584C225.997 439.584 228.071 437.532 228.071 434.992C228.071 434.16 227.841 433.378 227.454 432.703L227.54 432.667C228.214 434.475 230.087 435.781 232.297 435.781C235.074 435.781 237.327 433.729 237.327 431.189C237.327 431.167 237.327 431.139 237.327 431.117C238.202 431.863 239.415 432.33 240.756 432.33C243.418 432.33 245.578 430.514 245.578 428.276C245.578 427.293 245.162 426.389 244.473 425.693L244.466 425.7Z" fill="#2B388C"/>
<path d="M231.336 412.999L213.958 396.158L191.328 411.148L200.34 425.879C201.294 427.486 202.7 428.965 204.853 428.965C207.443 428.965 209.545 427.077 209.545 424.745C209.545 423.87 209.251 423.059 208.742 422.385L208.957 422.299C209.423 424.028 211.002 425.298 212.874 425.298C215.12 425.298 216.935 423.475 216.935 421.237C216.935 420.497 216.734 419.809 216.39 419.213L216.469 419.184C217.057 420.792 218.708 421.947 220.645 421.947C223.084 421.947 225.057 420.124 225.057 417.886C225.057 417.864 225.057 417.843 225.057 417.821C225.825 418.481 226.894 418.89 228.071 418.89C230.41 418.89 232.304 417.283 232.304 415.302C232.304 414.434 231.938 413.631 231.328 413.014L231.336 412.999Z" fill="#0A110A"/>
<path d="M219.145 400.944L218.406 400.241L206.374 389.198L185.538 401.856L191.844 412.303C192.677 413.659 193.932 415.066 195.834 415.066C198.123 415.066 199.974 413.379 199.974 411.291C199.974 410.509 199.715 409.785 199.263 409.182L199.45 409.103C199.866 410.646 201.251 411.786 202.908 411.786C204.889 411.786 206.496 410.158 206.496 408.149C206.496 407.488 206.316 406.871 206.015 406.333L206.087 406.304C206.611 407.74 208.06 408.773 209.775 408.773C211.927 408.773 213.671 407.144 213.671 405.135C213.671 405.113 213.671 405.099 213.671 405.077C214.345 405.666 215.292 406.039 216.333 406.039C218.399 406.039 220.071 404.597 220.071 402.824C220.071 402.042 219.777 401.64 219.131 400.944H219.145Z" fill="#2B388C"/>
<path d="M117.296 301.112L115.861 237.257C72.8475 247.439 40.9476 284.694 40.9476 329.096C40.9476 381.341 85.1095 423.698 139.582 423.698C167.937 423.698 193.502 412.217 211.49 393.841L117.304 301.119L117.296 301.112Z" fill="#0A110A"/>
<path d="M120.805 304.563C139.295 314.975 155.123 320.191 180.795 323.377C192.081 324.777 203.188 323.507 213.685 321.662C215.113 321.411 215.751 319.431 214.525 318.663C195.697 306.874 167.55 297.503 155.733 296.728C145.099 296.032 133.368 300.193 120.798 304.563H120.805Z" fill="#FFB00B"/>
<path d="M145.25 297.833C159.923 306.608 167.65 310.835 188.881 317.472C198.216 320.392 204.831 321.777 213.75 321.684C214.977 321.67 216.648 319.18 214.525 317.874C199.916 308.876 179.812 302.03 169.961 299.404C156.658 295.859 153.709 296.376 145.25 297.833Z" fill="#E91C24"/>
<path d="M212.437 264.366C194.377 244.806 168.311 232.701 139.367 234.38C134.179 234.681 120.037 236.554 116.471 237.028C115.998 237.092 115.653 237.494 115.668 237.975L117.081 300.617C117.081 300.861 117.189 301.09 117.361 301.263L120.733 304.585C120.999 304.85 121.401 304.922 121.745 304.779C133.935 299.605 147.424 296.728 161.616 296.728C174.201 296.728 186.226 298.995 197.29 303.114C198.036 287.966 203.949 273.364 212.444 264.381L212.437 264.366Z" fill="#FFE833"/>
<path d="M237.843 328.788V328.816C237.843 329.663 236.796 330.065 236.229 329.433C225.746 317.759 212.329 308.696 197.097 303.028C197.714 287.385 203.59 273.422 212.444 264.352C228.229 281.53 237.85 304.427 237.85 328.788H237.843Z" fill="#0A110A"/>
<path d="M171.991 288.368C171.991 270.781 178.621 255.225 188.788 245.717C174.244 237.623 157.362 233.332 139.367 234.38C134.179 234.681 120.037 236.554 116.479 237.028C116.005 237.092 115.661 237.494 115.675 237.975L117.088 300.617C117.088 300.861 117.196 301.09 117.368 301.263L120.74 304.585C121.006 304.85 121.408 304.922 121.752 304.779C133.942 299.605 147.431 296.728 161.623 296.728C165.333 296.728 168.992 296.929 172.594 297.309C172.214 294.41 172.006 291.432 172.006 288.383L171.991 288.368Z" fill="#E91C24"/>
<path d="M143.514 282.685C143.514 262.788 151.937 245.459 164.386 236.403C156.393 234.617 148.005 233.878 139.367 234.38C134.172 234.681 120.037 236.547 116.479 237.028C116.005 237.092 115.661 237.494 115.675 237.968L117.081 300.617C117.088 300.854 117.189 301.09 117.361 301.255L120.733 304.578C120.999 304.836 121.393 304.915 121.745 304.764C129.142 301.629 137.028 299.34 145.25 298.019C144.124 293.161 143.514 288.017 143.514 282.685Z" fill="#FFB00B"/>
<path d="M201.653 384.025L116.679 300.373C117.031 313.016 117.304 325.178 117.304 332.598C117.304 342.163 114.125 350.895 108.887 357.59C123.352 376.784 146.656 389.248 172.946 389.248C183.069 389.248 192.748 387.397 201.653 384.025Z" fill="#2B388C"/>
<path d="M153.143 336.329L150.265 333.43C151.012 334.966 151.306 336.358 150.933 338.216C150.251 341.603 147.403 344.244 143.98 344.638C141.49 344.925 139.223 344.093 137.58 342.593C137.056 342.113 136.238 342.156 135.736 342.651C135.22 343.16 135.255 344.014 135.829 344.466C138.154 346.296 139.446 349.36 138.75 352.603C138.032 355.933 135.22 358.516 131.84 358.918C128.999 359.255 126.445 358.128 124.766 356.227C124.048 355.416 122.807 355.358 122.039 356.119C121.393 356.758 121.393 357.777 121.996 358.458C123.575 360.245 124.378 362.713 123.905 365.325C123.539 367.342 122.491 369.042 120.92 370.24L122.592 371.69C124.306 370.255 125.49 368.325 125.978 366.057C126.48 363.718 126.165 361.458 125.261 359.513C126.746 360.482 128.497 361.077 130.398 361.156C135.851 361.386 140.644 357.124 141.074 351.663C141.218 349.805 140.866 348.032 140.127 346.468C142.079 347.035 144.253 347.107 146.621 346.152C150.122 344.739 152.748 341.596 153.2 337.836C153.272 337.219 153.171 336.932 153.143 336.336V336.329Z" fill="#0A110A"/>
<path d="M144.841 328.099C144.224 328.386 143.858 328.472 143.169 328.594C140.723 329.017 138.441 328.321 136.733 326.944C136.188 326.506 135.385 326.592 134.911 327.109C134.43 327.64 134.516 328.479 135.105 328.888C137.501 330.56 138.958 333.502 138.448 336.738C137.932 340.06 135.298 342.758 131.984 343.347C129.193 343.842 126.61 342.873 124.852 341.094C124.098 340.333 122.871 340.347 122.154 341.137C121.551 341.804 121.609 342.809 122.247 343.44C123.905 345.105 124.837 347.501 124.522 350.092C124.091 353.593 121.314 356.471 117.827 357.002C114.814 357.461 112.059 356.234 110.344 354.117L108.887 355.717C111.097 358.272 114.541 359.721 118.287 359.104C122.549 358.401 125.949 354.957 126.617 350.694C126.983 348.362 126.538 346.152 125.541 344.287C127.062 345.155 128.827 345.643 130.706 345.614C136.102 345.528 140.601 341.065 140.716 335.662C140.751 333.825 140.307 332.096 139.489 330.596C141.447 331.048 143.6 330.991 145.882 329.914C146.154 329.785 146.169 329.785 146.427 329.634L144.856 328.085L144.841 328.099Z" fill="#0A110A"/>
<path d="M160.196 343.218C159.6 343.476 159.277 343.54 158.617 343.648C156.142 344.043 153.853 343.311 152.145 341.89C151.593 341.431 150.782 341.495 150.294 342.019C149.792 342.557 149.878 343.404 150.474 343.835C152.87 345.564 154.291 348.563 153.738 351.828C153.171 355.186 150.466 357.891 147.108 358.437C144.274 358.896 141.663 357.877 139.905 356.033C139.159 355.251 137.932 355.272 137.193 356.062C136.568 356.729 136.619 357.748 137.25 358.401C138.907 360.116 139.812 362.548 139.453 365.175C138.965 368.719 136.124 371.589 132.586 372.085C129.537 372.508 125.433 372.02 123.948 369.932L122.592 371.69C124.931 374.122 129.228 374.797 133.024 374.23C137.343 373.577 140.83 370.14 141.562 365.82C141.964 363.467 141.548 361.214 140.565 359.312C142.093 360.216 143.865 360.733 145.774 360.733C151.234 360.726 155.84 356.255 156.027 350.788C156.092 348.929 155.661 347.171 154.857 345.636C156.831 346.116 159.005 346.095 161.329 345.04C161.588 344.925 161.58 344.954 161.824 344.818L160.203 343.225L160.196 343.218Z" fill="#0A110A"/>
<path d="M166.739 349.654C166.983 350.293 166.962 350.845 166.84 351.52C166.208 354.921 163.403 357.597 159.98 358.049C157.498 358.379 155.223 357.576 153.559 356.112C153.021 355.638 152.203 355.681 151.7 356.191C151.184 356.715 151.248 357.561 151.83 358.006C154.176 359.8 155.51 362.843 154.865 366.093C154.197 369.437 151.421 372.056 148.056 372.508C145.207 372.888 142.624 371.79 140.924 369.896C140.199 369.092 138.972 369.078 138.212 369.846C137.573 370.492 137.587 371.511 138.204 372.185C139.812 373.943 140.651 376.404 140.221 379.023C140.041 380.092 139.704 381.004 139.144 381.893L141.153 382.783C141.727 381.807 142.079 380.867 142.308 379.726C142.775 377.38 142.423 375.127 141.49 373.19C142.99 374.13 144.755 374.704 146.656 374.754C152.109 374.897 156.845 370.563 157.189 365.103C157.304 363.244 156.924 361.472 156.163 359.922C158.122 360.46 160.296 360.496 162.649 359.506C165.979 358.107 168.318 355.33 168.885 351.785L166.746 349.647L166.739 349.654Z" fill="#0A110A"/>
<path d="M183.629 366.28C183.206 369.724 180.802 372.4 177.538 373.168C174.732 373.828 172.07 372.931 170.205 371.13C169.415 370.37 168.189 370.463 167.5 371.331C166.919 372.063 167.033 373.111 167.701 373.749C169.459 375.421 170.513 377.89 170.312 380.631C170.047 384.333 167.378 387.49 163.884 388.222C163.417 388.323 162.915 388.452 162.391 388.595L167.679 389.04C170.284 387.34 172.113 384.448 172.45 381.162C172.709 378.693 172.156 376.39 171.059 374.481C172.637 375.321 174.445 375.744 176.339 375.622C180.695 375.335 184.282 372.285 185.495 368.109L183.629 366.272V366.28Z" fill="#0A110A"/>
<path d="M117.67 334.55C117.519 355.602 102.042 372.558 83.0934 372.422C64.1443 372.285 48.1943 355.1 49.0553 334.069C51.7746 267.739 116.055 254.256 116.055 254.256C116.055 254.256 117.82 313.504 117.67 334.55Z" fill="#F7F7F7"/>
<path d="M87.6208 288.634C97.1152 288.634 104.812 280.936 104.812 271.441C104.812 261.946 97.1152 254.249 87.6208 254.249C78.1263 254.249 70.4295 261.946 70.4295 271.441C70.4295 280.936 78.1263 288.634 87.6208 288.634Z" fill="#FFB00B"/>
<path d="M81.6727 282.204C85.2272 282.204 88.1087 279.323 88.1087 275.768C88.1087 272.213 85.2272 269.332 81.6727 269.332C78.1182 269.332 75.2368 272.213 75.2368 275.768C75.2368 279.323 78.1182 282.204 81.6727 282.204Z" fill="#2B388C"/>
<path d="M176.174 358.982L174.524 357.332C174.294 357.418 174.065 357.497 173.85 357.54C171.403 358.085 169.071 357.49 167.277 356.177C166.703 355.753 165.893 355.868 165.433 356.42C164.967 356.987 165.103 357.827 165.72 358.222C168.217 359.8 169.817 362.706 169.466 366.007C169.1 369.394 166.567 372.257 163.252 373.003C160.447 373.634 157.785 372.773 155.919 371.037C155.13 370.298 153.903 370.398 153.214 371.231C152.633 371.934 152.748 372.946 153.415 373.563C155.173 375.17 156.228 377.552 156.027 380.193C155.826 382.876 154.176 385.187 151.93 386.507L154.348 387.11C156.443 385.431 157.871 383.472 158.165 380.709C158.423 378.334 157.871 376.117 156.773 374.273C158.352 375.077 160.16 375.493 162.054 375.371C167.5 375.026 171.826 370.291 171.683 364.823C171.633 362.965 171.094 361.235 170.198 359.75C172.063 360.087 174.072 359.958 176.16 358.975L176.174 358.982Z" fill="#0A110A"/>
<path d="M37.2812 46.8989H33.5071V29.4338H26.8487V26.2766H43.9252V29.4338H37.2812V46.8989Z" fill="#67BA31"/>
<path d="M58.1388 42.0555C57.6796 43.0242 57.1917 43.8422 56.6895 44.5095C56.1872 45.1768 55.6419 45.715 55.0464 46.1312C54.458 46.5402 53.8051 46.8344 53.102 47.0209C52.3988 47.2003 51.6096 47.2936 50.7342 47.2936C50.397 47.2936 50.0167 47.2721 49.6078 47.2362C49.1988 47.2003 48.8113 47.1429 48.4526 47.0568V43.835C48.84 43.9283 49.2203 43.9929 49.5791 44.0359C49.9378 44.079 50.2679 44.1005 50.5692 44.1005C51.0428 44.1005 51.4661 44.0503 51.8464 43.9498C52.2266 43.8494 52.5782 43.67 52.9083 43.4117C53.2383 43.1533 53.554 42.8089 53.8554 42.364C54.1567 41.9192 54.4652 41.3595 54.7737 40.6706L46.745 26.291H50.9351L56.7325 36.8533L61.59 26.291H65.6869L58.1316 42.077L58.1388 42.0555Z" fill="#67BA31"/>
<path d="M257.991 549.427H261.765V566.892H268.423V570.049H251.346V566.892H257.991V549.427Z" fill="#67BA31"/>
<path d="M237.133 554.27C237.592 553.301 238.08 552.483 238.582 551.816C239.084 551.149 239.63 550.611 240.225 550.194C240.814 549.785 241.467 549.491 242.17 549.305C242.873 549.125 243.662 549.032 244.537 549.032C244.875 549.032 245.255 549.053 245.664 549.089C246.073 549.125 246.46 549.183 246.819 549.269V552.49C246.432 552.397 246.051 552.333 245.693 552.29C245.334 552.247 245.004 552.225 244.702 552.225C244.229 552.225 243.806 552.275 243.425 552.376C243.045 552.476 242.693 552.656 242.363 552.914C242.033 553.172 241.718 553.517 241.416 553.961C241.115 554.406 240.806 554.966 240.498 555.655L248.527 570.035H244.337L238.539 559.472L233.682 570.035H229.585L237.14 554.248L237.133 554.27Z" fill="#67BA31"/>
<path d="M134.524 70.4273H60.7649C57.2491 70.4273 54.4007 73.276 54.4007 76.792C54.4007 80.0927 57.0769 82.7692 60.3774 82.7692H93.4182V192.504C93.4182 195.912 96.1805 198.675 99.5886 198.675C102.997 198.675 105.759 195.912 105.759 192.504V82.762H134.079C137.609 82.762 140.464 79.899 140.464 76.3758C140.464 73.0894 137.803 70.4273 134.516 70.4273H134.524Z" fill="#67BA31"/>
<path d="M238.675 74.9192C238.618 72.1279 236.293 69.9251 233.51 70.0112L231.35 70.0757C228.595 70.1618 226.428 72.4437 226.485 75.1919C226.543 78.0621 226.614 96.1801 226.636 114.298C221.319 127.91 209.351 135.129 197.922 135.129C181.24 135.129 167.665 115.159 167.665 90.612C167.665 90.3537 167.665 82.7118 167.679 76.9786C167.679 73.5272 165.024 70.7359 161.738 70.7359C158.452 70.7359 155.805 73.5272 155.797 76.9642C155.797 82.6974 155.783 90.3537 155.783 90.612C155.783 105.494 159.966 119.551 167.564 130.192C175.55 141.386 186.327 147.549 197.922 147.549C207.916 147.549 219.023 143.545 226.643 135.143C226.636 144.177 226.6 151.173 226.543 153.204C226.284 161.994 221.628 169.592 218.873 173.345C214.847 178.82 209.488 183.082 204.164 185.027C197.362 187.517 190.044 188.471 185.459 188.837C182.854 189.045 180.86 191.227 180.86 193.838V195.46C180.86 198.172 183.048 200.404 185.76 200.404C185.782 200.404 185.81 200.404 185.832 200.404C190.668 200.404 199.227 199.823 208.361 196.486C215.881 193.738 223.292 187.933 228.709 180.571C233.101 174.594 238.41 165.05 238.74 153.562C238.955 146.258 238.812 80.717 238.69 74.9407L238.675 74.9192Z" fill="#67BA31"/>
<path d="M79.7498 532.026V501.86H68.2484V496.4H97.7518V501.86H86.2791V532.026H79.7498Z" fill="#67BA31"/>
<path d="M118.717 523.659C117.921 525.331 117.081 526.738 116.213 527.893C115.345 529.048 114.398 529.981 113.379 530.691C112.36 531.402 111.241 531.911 110.021 532.22C108.801 532.528 107.445 532.686 105.931 532.686C105.343 532.686 104.697 532.657 103.987 532.593C103.277 532.528 102.609 532.428 101.992 532.284V526.716C102.667 526.874 103.312 526.989 103.937 527.061C104.561 527.132 105.128 527.168 105.644 527.168C106.462 527.168 107.194 527.082 107.854 526.903C108.514 526.723 109.124 526.415 109.691 525.97C110.258 525.525 110.803 524.922 111.327 524.162C111.851 523.401 112.382 522.425 112.913 521.234L99.0433 496.393H106.283L116.292 514.633L124.68 496.393H131.761L118.717 523.659Z" fill="#67BA31"/>
<path d="M205.455 511.066H221.965V496.393H228.487V532.019H221.965V516.52H205.455V532.019H198.933V496.393H205.455V511.066Z" fill="#37434C"/>
</svg>
