<svg width="300" height="597" viewBox="0 0 300 597" fill="none" xmlns="http://www.w3.org/2000/svg">
<path d="M274.522 6.22114H28.6712C17.6987 6.22114 8.80369 15.1168 8.80369 26.09V569.001C8.80369 579.975 17.6987 588.87 28.6712 588.87H274.522C285.494 588.87 294.389 579.975 294.389 569.001V26.09C294.389 15.1168 285.494 6.22114 274.522 6.22114Z" fill="#FDFEFF"/>
<path d="M272.828 597H27.1788C12.1903 597 0 584.866 0 569.956V27.0444C0 12.1337 12.1903 0 27.1788 0H272.821C287.81 0 300 12.1337 300 27.0444V569.956C300 584.866 287.81 597 272.821 597H272.828ZM27.1788 14.351C20.1473 14.351 14.4217 20.0483 14.4217 27.0444V569.956C14.4217 576.952 20.1473 582.649 27.1788 582.649H272.821C279.853 582.649 285.578 576.952 285.578 569.956V27.0444C285.578 20.0483 279.853 14.351 272.821 14.351H27.1788Z" fill="#BEBEBF"/>
<path d="M140.78 199.873L139.288 82.7118C139.281 82.066 138.922 81.4561 138.326 81.1977C137.932 81.0255 137.429 80.8964 136.834 80.8246C136.425 80.7744 135.392 80.8246 134.897 81.7503L134.61 82.3243L68.9802 198.287C67.0071 201.731 64.6035 204.394 60.7936 203.389C56.9908 202.384 54.4365 199.084 54.4365 195.166L52.9944 73.6922C52.9944 71.5754 54.7164 69.8605 56.8401 69.8605H61.3173C63.0895 69.8605 64.5245 71.2884 64.5245 73.0536L65.9667 172.893C65.9667 174.45 68.0474 174.988 68.808 173.632L124.393 76.9642C125.899 73.7209 130.448 68.4613 138.255 69.4371C147.41 70.578 150.445 77.3804 150.768 80.8246L150.789 81.291L152.289 199.17C152.325 201.76 150.237 203.884 147.639 203.913L144.963 203.949C142.667 203.977 140.787 202.155 140.759 199.873H140.78Z" fill="#BEBEBF"/>
<path d="M203.181 451.646H203.188L203.102 451.546C202.6 450.871 202.033 450.247 201.409 449.687L182.208 432.351L163.209 445.253L182.302 466.751C183.034 467.978 184.878 469.377 185.947 470.281L186.069 470.424L186.097 470.396C187.913 471.881 190.13 472.835 192.583 473.015C199.321 473.51 205.211 468.021 205.742 460.759C205.993 457.336 204.996 454.136 203.181 451.653V451.646Z" fill="#E01E7F"/>
<path d="M89.9742 455.873L90.0531 455.772C90.5195 455.098 91.115 453.498 91.7033 452.924L105.321 434.683L130.656 447.011L111.643 468.71C110.99 469.922 109.232 471.372 108.227 472.304L108.112 472.448L108.084 472.419C106.369 473.948 104.216 475.01 101.784 475.347C95.1186 476.28 88.9338 471.501 87.9795 464.67C87.5275 461.448 88.3311 458.355 89.9885 455.873H89.9742Z" fill="#E01E7F"/>
<path d="M124.888 270.042C128.511 269.655 132.185 269.446 135.916 269.446C169.401 269.446 198.948 285.62 216.534 310.261L230.625 302.124C230.625 302.124 220.3 298.127 217.344 293.7C212.946 287.105 217.072 276.844 217.072 276.844C217.072 276.844 205.9 280.145 199.665 275.381C193.437 270.616 194.722 259.444 194.722 259.444C194.722 259.444 183.507 262.12 177.688 258.891C170.083 254.679 171.826 242.036 171.826 242.036C171.826 242.036 165.232 249.362 155.704 245.94C146.176 242.517 145.078 229.214 145.078 229.214C145.078 229.214 141.598 233.792 132.988 232.694C124.378 231.596 121.817 222.433 121.817 222.433L123.646 269.446L124.888 270.042Z" fill="#E01E7F"/>
<path d="M137.48 270.839L142.976 230.34C143.083 229.544 143.858 228.991 144.705 229.106C145.559 229.221 146.161 229.96 146.047 230.756L140.551 271.255C140.443 272.051 139.668 272.604 138.821 272.489C137.968 272.374 137.365 271.635 137.48 270.839Z" fill="#AD0B64"/>
<path d="M157.964 274.943L169.473 242.474C169.702 241.835 170.535 241.548 171.346 241.835C172.156 242.122 172.63 242.876 172.4 243.514L160.892 275.983C160.662 276.622 159.83 276.909 159.019 276.622C158.208 276.335 157.735 275.582 157.964 274.943Z" fill="#AD0B64"/>
<path d="M177.997 281.709L193.057 258.662C193.351 258.21 194.169 258.224 194.887 258.69C195.604 259.164 195.949 259.91 195.647 260.369L180.587 283.417C180.293 283.869 179.475 283.855 178.757 283.388C178.04 282.915 177.695 282.169 177.997 281.709Z" fill="#AD0B64"/>
<path d="M197.104 296.512L215.457 275.983C215.816 275.582 216.627 275.718 217.265 276.285C217.904 276.859 218.126 277.655 217.768 278.057L199.414 298.586C199.055 298.988 198.245 298.852 197.606 298.285C196.967 297.711 196.745 296.914 197.104 296.512Z" fill="#AD0B64"/>
<path d="M206.266 315.757L230.144 302.052C230.611 301.779 231.335 302.167 231.766 302.913C232.189 303.659 232.153 304.484 231.687 304.75L207.809 318.455C207.342 318.728 206.618 318.34 206.187 317.594C205.764 316.848 205.8 316.023 206.266 315.757Z" fill="#AD0B64"/>
<path d="M121.601 269.568L118.954 223.172C118.904 222.261 119.549 221.478 120.403 221.428C121.257 221.378 121.996 222.081 122.053 222.992L124.701 269.389C124.751 270.3 123.453 270.257 123.453 270.257L123.058 270.229C123.058 270.229 121.659 270.487 121.601 269.576V269.568Z" fill="#AD0B64"/>
<path d="M242.593 343.16L268.853 326.061C268.853 326.061 265.029 333.746 265.374 341.144C265.704 348.305 275.569 350.364 275.569 350.364C275.569 350.364 265.065 355.782 265.553 362.871C266.041 369.953 275.569 374.187 275.569 374.187C275.569 374.187 267.756 376.569 266.658 383.285C265.56 390.002 270.927 396.417 270.927 396.417L243.612 381.937L242.593 343.167V343.16Z" fill="#E01E7F"/>
<path d="M234.012 349.116L267.153 325.193C267.806 324.719 268.739 324.906 269.241 325.595C269.743 326.291 269.621 327.238 268.968 327.711L235.827 351.634C235.174 352.108 234.241 351.921 233.739 351.233C233.237 350.537 233.359 349.589 234.012 349.116Z" fill="#AD0B64"/>
<path d="M233.524 355.524L273.862 348.936C274.658 348.807 275.411 349.389 275.548 350.228C275.684 351.075 275.153 351.871 274.357 352L234.019 358.587C233.223 358.717 232.469 358.135 232.333 357.296C232.196 356.449 232.727 355.653 233.524 355.524Z" fill="#AD0B64"/>
<path d="M233.832 367.851L274.414 372.687C275.21 372.781 275.777 373.548 275.677 374.395C275.576 375.249 274.845 375.859 274.048 375.766L233.466 370.929C232.67 370.836 232.103 370.068 232.204 369.222C232.304 368.368 233.036 367.758 233.832 367.851Z" fill="#AD0B64"/>
<path d="M235.762 373.907L271.616 393.525C272.319 393.912 272.563 394.831 272.147 395.584C271.738 396.338 270.827 396.639 270.123 396.252L234.27 376.634C233.567 376.246 233.323 375.328 233.739 374.574C234.148 373.821 235.059 373.52 235.762 373.907Z" fill="#AD0B64"/>
<path d="M243.641 381.836L242.622 343.067L232.878 337.47C230.546 336.013 228.803 333.796 227.834 331.22C214.331 295.027 178.262 269.124 135.88 269.124C81.9525 269.124 38.2354 311.05 38.2354 362.771C38.2354 363.194 38.2426 363.61 38.2498 364.034C34.1816 365.282 31.2757 368.576 31.2757 372.458C31.2757 377.107 35.4444 380.925 40.7754 381.377C45.9414 382.231 54.0706 383.207 63.9362 383.142C80.4171 383.034 93.1814 376.698 93.1814 376.698C85.1167 393.102 63.4196 401.963 52.8078 405.436C51.667 405.659 50.5907 405.989 49.6078 406.434C49.5719 406.441 49.536 406.455 49.5001 406.462C49.5001 406.462 49.5001 406.469 49.5001 406.477C46.1064 408.019 43.8463 410.753 43.8463 413.875C43.8463 418.696 49.2347 422.607 55.8787 422.607C57.4213 422.607 58.8922 422.385 60.2554 422.004C78.157 443.007 105.379 456.418 135.872 456.418C178.112 456.418 214.08 430.694 227.691 394.687C229.04 391.114 231.637 388.143 235.016 386.364L243.633 381.836H243.641Z" fill="#0280C6"/>
<path d="M106.85 365.318C106.85 334.55 90.4908 307.613 67.7533 295.163C49.3566 312.198 37.9054 336.092 37.9054 362.548C37.9054 362.972 37.9126 363.388 37.9197 363.811C33.8515 365.06 30.9457 368.353 30.9457 372.235C30.9457 376.885 35.1143 380.702 40.4453 381.154C45.6113 382.008 53.7406 382.984 63.6061 382.92C80.0871 382.812 92.8513 376.476 92.8513 376.476C84.7867 392.879 63.0895 401.741 52.4778 405.214C51.3369 405.436 50.2607 405.766 49.2777 406.211C49.2418 406.218 49.206 406.233 49.1701 406.24C49.1701 406.24 49.1701 406.247 49.1701 406.254C45.7763 407.797 43.5162 410.531 43.5162 413.652C43.5162 418.474 48.9046 422.385 55.5486 422.385C57.0913 422.385 58.5621 422.162 59.9254 421.782C63.52 425.994 67.4878 429.897 71.7856 433.456C92.4495 420.225 106.843 394.329 106.843 365.318H106.85Z" fill="#39BAAA"/>
<path d="M194.492 339.027C205.377 339.027 214.202 329.56 214.202 317.881C214.202 306.202 205.377 296.735 194.492 296.735C183.607 296.735 174.782 306.202 174.782 317.881C174.782 329.56 183.607 339.027 194.492 339.027Z" fill="#0280C6"/>
<path d="M194.492 340.57C182.833 340.57 173.347 330.395 173.347 317.881C173.347 305.367 182.833 295.192 194.492 295.192C206.151 295.192 215.637 305.367 215.637 317.881C215.637 330.395 206.151 340.57 194.492 340.57ZM194.492 298.285C184.418 298.285 176.225 307.075 176.225 317.888C176.225 328.702 184.418 337.492 194.492 337.492C204.566 337.492 212.759 328.702 212.759 317.888C212.759 307.075 204.566 298.285 194.492 298.285Z" fill="#1141BA"/>
<path d="M171.044 319.424C181.93 319.424 190.754 309.956 190.754 298.278C190.754 286.599 181.93 277.131 171.044 277.131C160.159 277.131 151.335 286.599 151.335 298.278C151.335 309.956 160.159 319.424 171.044 319.424Z" fill="#0280C6"/>
<path d="M171.044 321.225C159.385 321.225 149.9 311.05 149.9 298.536C149.9 286.022 160.009 276.084 171.044 276.4C179.575 276.643 192.189 286.022 192.189 298.536C192.189 311.05 182.704 321.225 171.044 321.225ZM171.044 279.349C160.971 279.349 152.777 287.73 152.777 298.536C152.777 309.342 160.971 318.139 171.044 318.139C181.118 318.139 189.312 309.349 189.312 298.536C189.312 287.722 177.344 279.349 171.044 279.349Z" fill="#1141BA"/>
<path d="M197.369 382.762C208.255 382.762 217.079 373.317 217.079 361.666C217.079 350.015 208.255 340.57 197.369 340.57C186.484 340.57 177.66 350.015 177.66 361.666C177.66 373.317 186.484 382.762 197.369 382.762Z" fill="#0280C6"/>
<path d="M197.369 384.304C185.71 384.304 176.225 374.151 176.225 361.666C176.225 349.18 185.71 339.027 197.369 339.027C209.028 339.027 218.514 349.18 218.514 361.666C218.514 374.151 209.028 384.304 197.369 384.304ZM197.369 342.113C187.296 342.113 179.102 350.888 179.102 361.673C179.102 372.458 187.296 381.233 197.369 381.233C207.443 381.233 215.637 372.458 215.637 361.673C215.637 350.888 207.443 342.113 197.369 342.113Z" fill="#1141BA"/>
<path d="M195.934 426.496C206.82 426.496 215.644 417.051 215.644 405.4C215.644 393.749 206.82 384.304 195.934 384.304C185.049 384.304 176.225 393.749 176.225 405.4C176.225 417.051 185.049 426.496 195.934 426.496Z" fill="#0280C6"/>
<path d="M195.934 428.039C184.275 428.039 174.79 417.886 174.79 405.4C174.79 392.915 184.275 382.762 195.934 382.762C207.594 382.762 217.079 392.915 217.079 405.4C217.079 417.886 207.594 428.039 195.934 428.039ZM195.934 385.847C185.861 385.847 177.667 394.623 177.667 405.407C177.667 416.192 185.861 424.968 195.934 424.968C206.008 424.968 214.202 416.192 214.202 405.407C214.202 394.623 206.008 385.847 195.934 385.847Z" fill="#1141BA"/>
<path d="M127.815 269.446C127.478 270.996 127.341 272.381 127.341 274.046C127.341 285.72 136.167 295.192 147.051 295.192C157.936 295.192 166.725 285.764 166.761 274.111C154.255 270.092 141.003 268.65 127.822 269.446H127.815Z" fill="#0280C6"/>
<path d="M165.182 273.422C165.197 273.716 165.319 273.752 165.319 274.046C165.319 284.852 157.125 293.649 147.051 293.649C136.977 293.649 128.784 284.859 128.784 274.046C128.784 272.252 128.992 271.018 129.415 269.36C128.41 269.411 127.327 269.497 126.33 269.576C125.993 271.183 125.914 272.331 125.914 274.046C125.914 286.553 135.399 296.735 147.058 296.735C158.718 296.735 168.067 286.883 168.081 274.39C167.119 274.075 166.165 273.709 165.197 273.422H165.182Z" fill="#1141BA"/>
<path d="M168.382 450.742C176.346 447.886 184.009 444.062 191.184 439.283C192.383 436.563 193.05 433.521 193.05 430.321C193.05 418.668 184.225 409.225 173.34 409.225C162.456 409.225 153.631 418.668 153.631 430.321C153.631 440.137 159.894 448.389 168.375 450.742H168.382Z" fill="#0280C6"/>
<path d="M166.05 451.567C167.765 451 169.459 450.391 171.145 449.73C162.104 448.561 155.08 440.309 155.08 430.321C155.08 419.536 163.274 410.76 173.347 410.76C183.421 410.76 191.615 419.536 191.615 430.321C191.615 434.231 190.531 437.877 188.673 440.94C190.223 439.972 191.758 438.96 193.265 437.905C194.054 435.53 194.492 432.983 194.492 430.321C194.492 417.835 185.007 407.682 173.347 407.682C161.688 407.682 152.203 417.835 152.203 430.321C152.203 440.058 157.979 448.374 166.05 451.567Z" fill="#1141BA"/>
<path d="M174.782 407.682C185.668 407.682 194.492 397.903 194.492 385.84C194.492 373.777 185.668 363.998 174.782 363.998C163.897 363.998 155.073 373.777 155.073 385.84C155.073 397.903 163.897 407.682 174.782 407.682Z" fill="#0280C6"/>
<path d="M174.782 409.275C163.123 409.275 153.638 398.763 153.638 385.84C153.638 372.917 163.123 362.405 174.782 362.405C186.442 362.405 195.927 372.917 195.927 385.84C195.927 398.763 186.442 409.275 174.782 409.275ZM174.782 365.591C164.709 365.591 156.515 374.675 156.515 385.84C156.515 397.005 164.709 406.089 174.782 406.089C184.856 406.089 193.05 397.005 193.05 385.84C193.05 374.675 184.856 365.591 174.782 365.591Z" fill="#1141BA"/>
<path d="M172.479 363.948C183.365 363.948 192.189 354.168 192.189 342.105C192.189 330.042 183.365 320.263 172.479 320.263C161.594 320.263 152.77 330.042 152.77 342.105C152.77 354.168 161.594 363.948 172.479 363.948Z" fill="#0280C6"/>
<path d="M172.479 365.54C160.82 365.54 151.335 355.028 151.335 342.105C151.335 329.182 160.82 318.67 172.479 318.67C184.139 318.67 193.624 329.182 193.624 342.105C193.624 355.028 184.139 365.54 172.479 365.54ZM172.479 321.856C162.406 321.856 154.212 330.94 154.212 342.105C154.212 353.27 162.406 362.355 172.479 362.355C182.553 362.355 190.747 353.27 190.747 342.105C190.747 330.94 182.553 321.856 172.479 321.856Z" fill="#1141BA"/>
<path d="M149.9 430.371C160.785 430.371 169.609 420.904 169.609 409.225C169.609 397.546 160.785 388.079 149.9 388.079C139.014 388.079 130.19 397.546 130.19 409.225C130.19 420.904 139.014 430.371 149.9 430.371Z" fill="#0280C6"/>
<path d="M149.9 431.914C138.24 431.914 128.755 421.739 128.755 409.225C128.755 396.711 138.24 386.536 149.9 386.536C161.559 386.536 171.044 396.711 171.044 409.225C171.044 421.739 161.559 431.914 149.9 431.914ZM149.9 389.629C139.826 389.629 131.632 398.419 131.632 409.232C131.632 420.045 139.826 428.835 149.9 428.835C159.973 428.835 168.167 420.045 168.167 409.232C168.167 398.419 159.973 389.629 149.9 389.629Z" fill="#1141BA"/>
<path d="M149.9 380.487C160.785 380.487 169.609 371.02 169.609 359.341C169.609 347.662 160.785 338.195 149.9 338.195C139.014 338.195 130.19 347.662 130.19 359.341C130.19 371.02 139.014 380.487 149.9 380.487Z" fill="#0280C6"/>
<path d="M149.9 382.03C138.24 382.03 128.755 371.855 128.755 359.341C128.755 346.827 138.24 336.652 149.9 336.652C161.559 336.652 171.044 346.827 171.044 359.341C171.044 371.855 161.559 382.03 149.9 382.03ZM149.9 339.745C139.826 339.745 131.632 348.535 131.632 359.348C131.632 370.162 139.826 378.951 149.9 378.951C159.973 378.951 168.167 370.162 168.167 359.348C168.167 348.535 159.973 339.745 149.9 339.745Z" fill="#1141BA"/>
<path d="M148.486 337.484C159.371 337.484 168.196 328.017 168.196 316.338C168.196 304.66 159.371 295.192 148.486 295.192C137.601 295.192 128.776 304.66 128.776 316.338C128.776 328.017 137.601 337.484 148.486 337.484Z" fill="#0280C6"/>
<path d="M148.486 339.02C136.827 339.02 127.341 328.845 127.341 316.331C127.341 303.817 136.827 293.642 148.486 293.642C160.145 293.642 169.631 303.817 169.631 316.331C169.631 328.845 160.145 339.02 148.486 339.02ZM148.486 296.735C138.412 296.735 130.219 305.525 130.219 316.338C130.219 327.152 138.412 335.942 148.486 335.942C158.56 335.942 166.754 327.152 166.754 316.338C166.754 305.525 158.56 296.735 148.486 296.735Z" fill="#1141BA"/>
<path d="M124.149 318.642C135.034 318.642 143.858 308.676 143.858 296.383C143.858 284.09 135.034 274.125 124.149 274.125C113.263 274.125 104.439 284.09 104.439 296.383C104.439 308.676 113.263 318.642 124.149 318.642Z" fill="#0280C6"/>
<path d="M124.149 320.263C112.489 320.263 103.004 309.55 103.004 296.383C103.004 283.216 112.489 272.503 124.149 272.503C135.808 272.503 145.293 283.216 145.293 296.383C145.293 309.55 135.808 320.263 124.149 320.263ZM124.149 275.754C114.075 275.754 105.881 285.01 105.881 296.383C105.881 307.756 114.075 317.013 124.149 317.013C134.222 317.013 142.416 307.756 142.416 296.383C142.416 285.01 134.222 275.754 124.149 275.754Z" fill="#1141BA"/>
<path d="M84.4423 283.116C88.0082 288.555 93.741 292.028 100.407 292.028C111.291 292.028 120.116 282.563 120.116 270.882C120.116 270.652 120.116 270.508 120.102 270.279C107.754 272.159 95.7213 276.421 84.4423 283.116Z" fill="#0280C6"/>
<path d="M118.595 270.595C118.595 270.745 118.602 270.81 118.602 270.961C118.602 281.767 110.408 290.564 100.335 290.564C94.2217 290.564 88.8549 287.4 85.54 282.441C84.6934 282.929 83.8898 283.503 83.0575 284.02C86.8818 289.925 93.1455 293.657 100.342 293.657C112.001 293.657 121.487 283.482 121.487 270.968C121.487 270.666 121.479 270.451 121.465 270.157C120.511 270.286 119.549 270.444 118.595 270.609V270.595Z" fill="#1141BA"/>
<path d="M126.818 453.426C137.703 453.426 146.527 443.547 146.527 431.361C146.527 419.175 137.703 409.297 126.818 409.297C115.932 409.297 107.108 419.175 107.108 431.361C107.108 443.547 115.932 453.426 126.818 453.426Z" fill="#0280C6"/>
<path d="M126.818 455.033C115.158 455.033 105.673 444.413 105.673 431.361C105.673 418.309 115.158 407.682 126.818 407.682C138.477 407.682 147.962 418.302 147.962 431.361C147.962 444.421 138.477 455.033 126.818 455.033ZM126.818 410.904C116.744 410.904 108.55 420.081 108.55 431.361C108.55 442.641 116.744 451.818 126.818 451.818C136.891 451.818 145.085 442.641 145.085 431.361C145.085 420.081 136.891 410.904 126.818 410.904Z" fill="#1141BA"/>
<path d="M119.908 455.378C119.958 454.732 119.987 454.086 119.987 453.426C119.987 441.242 111.162 431.361 100.277 431.361C92.8872 431.361 86.4441 435.925 83.0718 442.663C94.7527 449.458 107.28 453.655 119.901 455.378H119.908Z" fill="#0280C6"/>
<path d="M84.6073 442.935C87.8001 436.972 93.6334 432.976 100.285 432.976C110.358 432.976 118.552 442.153 118.552 453.433C118.552 454.007 118.523 454.581 118.48 455.141C119.435 455.299 120.382 455.442 121.336 455.571C121.393 454.868 121.429 454.151 121.429 453.433C121.429 440.381 111.944 429.754 100.285 429.754C92.5356 429.754 85.7553 434.447 82.0745 441.414C82.914 441.931 83.7606 442.44 84.6073 442.935Z" fill="#1141BA"/>
<path d="M93.1886 447.255C93.3751 446.925 93.5473 446.588 93.7195 446.243C96.9124 439.57 95.5778 431.799 90.95 425.843C85.6764 429.431 80.8548 433.449 76.4852 437.798C81.8377 441.529 87.427 444.686 93.1957 447.255H93.1886Z" fill="#0280C6"/>
<path d="M92.263 446.279C92.1267 446.566 91.9832 446.846 91.8325 447.119C92.8083 447.578 93.7841 448.023 94.7671 448.453C94.9034 448.195 95.0397 447.937 95.1688 447.671C98.5124 440.682 97.2065 432.538 92.5069 426.209C91.6746 426.74 90.8495 427.286 90.0387 427.838C94.0352 433.291 95.133 440.28 92.263 446.279Z" fill="#1141BA"/>
<path d="M126.818 406.986C137.703 406.986 146.527 397.519 146.527 385.84C146.527 374.161 137.703 364.694 126.818 364.694C115.932 364.694 107.108 374.161 107.108 385.84C107.108 397.519 115.932 406.986 126.818 406.986Z" fill="#0280C6"/>
<path d="M126.818 408.529C115.158 408.529 105.673 398.175 105.673 385.445C105.673 372.716 115.158 362.355 126.818 362.355C138.477 362.355 147.962 372.709 147.962 385.445C147.962 398.182 138.477 408.529 126.818 408.529ZM126.818 365.497C116.744 365.497 108.55 374.445 108.55 385.445C108.55 396.445 116.744 405.393 126.818 405.393C136.891 405.393 145.085 396.445 145.085 385.445C145.085 374.445 136.891 365.497 126.818 365.497Z" fill="#1141BA"/>
<path d="M127.341 362.778C138.227 362.778 147.051 353.31 147.051 341.632C147.051 329.953 138.227 320.486 127.341 320.486C116.456 320.486 107.632 329.953 107.632 341.632C107.632 353.31 116.456 362.778 127.341 362.778Z" fill="#0280C6"/>
<path d="M127.341 364.321C115.682 364.321 106.197 354.146 106.197 341.632C106.197 329.118 115.682 318.943 127.341 318.943C139.001 318.943 148.486 329.118 148.486 341.632C148.486 354.146 139.001 364.321 127.341 364.321ZM127.341 322.036C117.268 322.036 109.074 330.826 109.074 341.639C109.074 352.452 117.268 361.242 127.341 361.242C137.415 361.242 145.609 352.452 145.609 341.639C145.609 330.826 137.415 322.036 127.341 322.036Z" fill="#1141BA"/>
<path d="M111.169 329.979C114.864 326.133 117.167 320.758 117.167 314.796C117.167 303.121 108.342 293.649 97.4577 293.649C92.7294 293.649 88.3885 295.436 84.9947 298.414C96.1375 305.841 105.257 316.805 111.169 329.979Z" fill="#0280C6"/>
<path d="M86.2934 299.296C89.3858 296.728 93.2603 295.192 97.4577 295.192C107.531 295.192 115.725 303.982 115.725 314.796C115.725 320.134 113.723 324.978 110.487 328.515C110.947 329.477 111.384 330.452 111.8 331.443C115.976 327.295 118.602 321.368 118.602 314.796C118.602 302.289 109.117 292.107 97.4577 292.107C92.2128 292.107 87.4127 294.166 83.7176 297.574C84.5858 298.127 85.4468 298.708 86.2934 299.296Z" fill="#1141BA"/>
<path d="M114.168 392.836C109.562 406.642 101.598 418.553 91.4163 427.25C94.4155 429.223 97.9384 430.364 101.72 430.364C112.604 430.364 121.429 420.899 121.429 409.218C121.429 402.609 118.602 396.704 114.168 392.829V392.836Z" fill="#0280C6"/>
<path d="M115.022 391.609C114.699 392.657 114.348 393.69 113.989 394.716C117.67 398.304 119.987 403.484 119.987 409.225C119.987 420.031 111.793 428.828 101.72 428.828C98.5841 428.828 95.6352 427.974 93.0522 426.475C92.263 427.185 91.4594 427.867 90.6414 428.541C93.863 430.68 97.6586 431.914 101.72 431.914C113.379 431.914 122.864 421.739 122.864 409.225C122.864 402.121 119.801 395.771 115.022 391.609Z" fill="#1141BA"/>
<path d="M74.2753 367.844C85.3429 367.844 94.315 358.916 94.315 347.903C94.315 336.89 85.3429 327.963 74.2753 327.963C63.2077 327.963 54.2356 336.89 54.2356 347.903C54.2356 358.916 63.2077 367.844 74.2753 367.844Z" fill="#F7F7F7"/>
<path d="M81.1274 361.357C85.5458 361.357 89.1275 357.794 89.1275 353.4C89.1275 349.005 85.5458 345.442 81.1274 345.442C76.7091 345.442 73.1273 349.005 73.1273 353.4C73.1273 357.794 76.7091 361.357 81.1274 361.357Z" fill="#05399F"/>
<path d="M124.701 302.949C128.133 302.949 130.915 300.167 130.915 296.735C130.915 293.303 128.133 290.521 124.701 290.521C121.269 290.521 118.488 293.303 118.488 296.735C118.488 300.167 121.269 302.949 124.701 302.949Z" fill="#0F3C8C"/>
<path d="M124.701 303.968C120.712 303.968 117.469 300.724 117.469 296.735C117.469 292.745 120.712 289.502 124.701 289.502C128.69 289.502 131.933 292.745 131.933 296.735C131.933 300.724 128.69 303.968 124.701 303.968ZM124.701 291.54C121.831 291.54 119.499 293.872 119.499 296.742C119.499 299.612 121.831 301.944 124.701 301.944C127.571 301.944 129.903 299.612 129.903 296.742C129.903 293.872 127.571 291.54 124.701 291.54Z" fill="#25AABC"/>
<path d="M99.9259 317.35C103.357 317.35 106.139 314.568 106.139 311.136C106.139 307.704 103.357 304.922 99.9259 304.922C96.4942 304.922 93.7123 307.704 93.7123 311.136C93.7123 314.568 96.4942 317.35 99.9259 317.35Z" fill="#0F3C8C"/>
<path d="M99.9259 318.362C95.9366 318.362 92.6935 315.118 92.6935 311.129C92.6935 307.139 95.9366 303.896 99.9259 303.896C103.915 303.896 107.158 307.139 107.158 311.129C107.158 315.118 103.915 318.362 99.9259 318.362ZM99.9259 305.934C97.0559 305.934 94.724 308.266 94.724 311.136C94.724 314.006 97.0559 316.338 99.9259 316.338C102.796 316.338 105.128 314.006 105.128 311.136C105.128 308.266 102.796 305.934 99.9259 305.934Z" fill="#25AABC"/>
<path d="M128.748 347.846C132.179 347.846 134.961 345.064 134.961 341.632C134.961 338.2 132.179 335.418 128.748 335.418C125.316 335.418 122.534 338.2 122.534 341.632C122.534 345.064 125.316 347.846 128.748 347.846Z" fill="#0F3C8C"/>
<path d="M128.748 348.865C124.758 348.865 121.515 345.621 121.515 341.632C121.515 337.642 124.758 334.399 128.748 334.399C132.737 334.399 135.98 337.642 135.98 341.632C135.98 345.621 132.737 348.865 128.748 348.865ZM128.748 336.437C125.878 336.437 123.546 338.769 123.546 341.639C123.546 344.509 125.878 346.841 128.748 346.841C131.618 346.841 133.95 344.509 133.95 341.639C133.95 338.769 131.618 336.437 128.748 336.437Z" fill="#25AABC"/>
<path d="M128.776 391.652C132.208 391.652 134.99 388.87 134.99 385.438C134.99 382.006 132.208 379.224 128.776 379.224C125.345 379.224 122.563 382.006 122.563 385.438C122.563 388.87 125.345 391.652 128.776 391.652Z" fill="#0F3C8C"/>
<path d="M128.776 392.671C124.787 392.671 121.544 389.428 121.544 385.438C121.544 381.449 124.787 378.205 128.776 378.205C132.766 378.205 136.009 381.449 136.009 385.438C136.009 389.428 132.766 392.671 128.776 392.671ZM128.776 380.243C125.906 380.243 123.575 382.575 123.575 385.445C123.575 388.315 125.906 390.648 128.776 390.648C131.646 390.648 133.978 388.315 133.978 385.445C133.978 382.575 131.646 380.243 128.776 380.243Z" fill="#25AABC"/>
<path d="M175.744 392.75C179.175 392.75 181.957 389.968 181.957 386.536C181.957 383.104 179.175 380.322 175.744 380.322C172.312 380.322 169.53 383.104 169.53 386.536C169.53 389.968 172.312 392.75 175.744 392.75Z" fill="#0F3C8C"/>
<path d="M175.744 393.762C171.755 393.762 168.511 390.518 168.511 386.529C168.511 382.539 171.755 379.296 175.744 379.296C179.733 379.296 182.976 382.539 182.976 386.529C182.976 390.518 179.733 393.762 175.744 393.762ZM175.744 381.334C172.874 381.334 170.542 383.666 170.542 386.536C170.542 389.406 172.874 391.738 175.744 391.738C178.614 391.738 180.946 389.406 180.946 386.536C180.946 383.666 178.614 381.334 175.744 381.334Z" fill="#25AABC"/>
<path d="M153.638 366.839C157.069 366.839 159.851 364.057 159.851 360.625C159.851 357.193 157.069 354.411 153.638 354.411C150.206 354.411 147.424 357.193 147.424 360.625C147.424 364.057 150.206 366.839 153.638 366.839Z" fill="#0F3C8C"/>
<path d="M153.638 367.858C149.648 367.858 146.405 364.615 146.405 360.625C146.405 356.636 149.648 353.392 153.638 353.392C157.627 353.392 160.87 356.636 160.87 360.625C160.87 364.615 157.627 367.858 153.638 367.858ZM153.638 355.43C150.768 355.43 148.436 357.762 148.436 360.632C148.436 363.503 150.768 365.835 153.638 365.835C156.508 365.835 158.84 363.503 158.84 360.632C158.84 357.762 156.508 355.43 153.638 355.43Z" fill="#25AABC"/>
<path d="M174.782 348.319C178.214 348.319 180.996 345.537 180.996 342.105C180.996 338.674 178.214 335.891 174.782 335.891C171.351 335.891 168.569 338.674 168.569 342.105C168.569 345.537 171.351 348.319 174.782 348.319Z" fill="#0F3C8C"/>
<path d="M174.782 349.338C170.793 349.338 167.55 346.095 167.55 342.105C167.55 338.116 170.793 334.872 174.782 334.872C178.772 334.872 182.015 338.116 182.015 342.105C182.015 346.095 178.772 349.338 174.782 349.338ZM174.782 336.91C171.912 336.91 169.581 339.242 169.581 342.113C169.581 344.983 171.912 347.315 174.782 347.315C177.652 347.315 179.984 344.983 179.984 342.113C179.984 339.242 177.652 336.91 174.782 336.91Z" fill="#25AABC"/>
<path d="M199.421 413.638C202.853 413.638 205.635 410.856 205.635 407.424C205.635 403.992 202.853 401.21 199.421 401.21C195.99 401.21 193.208 403.992 193.208 407.424C193.208 410.856 195.99 413.638 199.421 413.638Z" fill="#0F3C8C"/>
<path d="M199.421 414.657C195.432 414.657 192.189 411.413 192.189 407.424C192.189 403.434 195.432 400.191 199.421 400.191C203.411 400.191 206.654 403.434 206.654 407.424C206.654 411.413 203.411 414.657 199.421 414.657ZM199.421 402.229C196.551 402.229 194.219 404.561 194.219 407.431C194.219 410.301 196.551 412.633 199.421 412.633C202.291 412.633 204.623 410.301 204.623 407.431C204.623 404.561 202.291 402.229 199.421 402.229Z" fill="#25AABC"/>
<path d="M174.782 437.575C178.214 437.575 180.996 434.793 180.996 431.361C180.996 427.929 178.214 425.147 174.782 425.147C171.351 425.147 168.569 427.929 168.569 431.361C168.569 434.793 171.351 437.575 174.782 437.575Z" fill="#0F3C8C"/>
<path d="M174.782 438.587C170.793 438.587 167.55 435.344 167.55 431.354C167.55 427.364 170.793 424.121 174.782 424.121C178.772 424.121 182.015 427.364 182.015 431.354C182.015 435.344 178.772 438.587 174.782 438.587ZM174.782 426.159C171.912 426.159 169.581 428.491 169.581 431.361C169.581 434.231 171.912 436.563 174.782 436.563C177.652 436.563 179.984 434.231 179.984 431.361C179.984 428.491 177.652 426.159 174.782 426.159Z" fill="#25AABC"/>
<path d="M151.335 417.118C154.766 417.118 157.548 414.336 157.548 410.904C157.548 407.472 154.766 404.69 151.335 404.69C147.903 404.69 145.121 407.472 145.121 410.904C145.121 414.336 147.903 417.118 151.335 417.118Z" fill="#0F3C8C"/>
<path d="M151.335 418.137C147.345 418.137 144.102 414.893 144.102 410.904C144.102 406.914 147.345 403.671 151.335 403.671C155.324 403.671 158.567 406.914 158.567 410.904C158.567 414.893 155.324 418.137 151.335 418.137ZM151.335 405.709C148.465 405.709 146.133 408.041 146.133 410.911C146.133 413.781 148.465 416.113 151.335 416.113C154.205 416.113 156.536 413.781 156.536 410.911C156.536 408.041 154.205 405.709 151.335 405.709Z" fill="#25AABC"/>
<path d="M128.776 438.128C132.208 438.128 134.99 435.346 134.99 431.914C134.99 428.482 132.208 425.7 128.776 425.7C125.345 425.7 122.563 428.482 122.563 431.914C122.563 435.346 125.345 438.128 128.776 438.128Z" fill="#0F3C8C"/>
<path d="M128.776 439.139C124.787 439.139 121.544 435.896 121.544 431.907C121.544 427.917 124.787 424.674 128.776 424.674C132.766 424.674 136.009 427.917 136.009 431.907C136.009 435.896 132.766 439.139 128.776 439.139ZM128.776 426.711C125.906 426.711 123.575 429.044 123.575 431.914C123.575 434.784 125.906 437.116 128.776 437.116C131.646 437.116 133.978 434.784 133.978 431.914C133.978 429.044 131.646 426.711 128.776 426.711Z" fill="#25AABC"/>
<path d="M105.666 418.84C109.097 418.84 111.879 416.058 111.879 412.626C111.879 409.194 109.097 406.412 105.666 406.412C102.234 406.412 99.4523 409.194 99.4523 412.626C99.4523 416.058 102.234 418.84 105.666 418.84Z" fill="#0F3C8C"/>
<path d="M105.666 419.859C101.677 419.859 98.4335 416.616 98.4335 412.626C98.4335 408.636 101.677 405.393 105.666 405.393C109.655 405.393 112.898 408.636 112.898 412.626C112.898 416.616 109.655 419.859 105.666 419.859ZM105.666 407.431C102.796 407.431 100.464 409.763 100.464 412.633C100.464 415.503 102.796 417.835 105.666 417.835C108.536 417.835 110.868 415.503 110.868 412.633C110.868 409.763 108.536 407.431 105.666 407.431Z" fill="#25AABC"/>
<path d="M151.335 322.552C154.766 322.552 157.548 319.77 157.548 316.338C157.548 312.906 154.766 310.124 151.335 310.124C147.903 310.124 145.121 312.906 145.121 316.338C145.121 319.77 147.903 322.552 151.335 322.552Z" fill="#0F3C8C"/>
<path d="M151.335 323.564C147.345 323.564 144.102 320.321 144.102 316.331C144.102 312.341 147.345 309.098 151.335 309.098C155.324 309.098 158.567 312.341 158.567 316.331C158.567 320.321 155.324 323.564 151.335 323.564ZM151.335 311.136C148.465 311.136 146.133 313.468 146.133 316.338C146.133 319.208 148.465 321.54 151.335 321.54C154.205 321.54 156.536 319.208 156.536 316.338C156.536 313.468 154.205 311.136 151.335 311.136Z" fill="#25AABC"/>
<path d="M174.782 302.949C178.214 302.949 180.996 300.167 180.996 296.735C180.996 293.303 178.214 290.521 174.782 290.521C171.351 290.521 168.569 293.303 168.569 296.735C168.569 300.167 171.351 302.949 174.782 302.949Z" fill="#0F3C8C"/>
<path d="M174.782 303.968C170.793 303.968 167.55 300.724 167.55 296.735C167.55 292.745 170.793 289.502 174.782 289.502C178.772 289.502 182.015 292.745 182.015 296.735C182.015 300.724 178.772 303.968 174.782 303.968ZM174.782 291.54C171.912 291.54 169.581 293.872 169.581 296.742C169.581 299.612 171.912 301.944 174.782 301.944C177.652 301.944 179.984 299.612 179.984 296.742C179.984 293.872 177.652 291.54 174.782 291.54Z" fill="#25AABC"/>
<path d="M199.421 323.234C202.853 323.234 205.635 320.452 205.635 317.02C205.635 313.588 202.853 310.806 199.421 310.806C195.99 310.806 193.208 313.588 193.208 317.02C193.208 320.452 195.99 323.234 199.421 323.234Z" fill="#0F3C8C"/>
<path d="M199.421 324.246C195.432 324.246 192.189 321.002 192.189 317.013C192.189 313.023 195.432 309.78 199.421 309.78C203.411 309.78 206.654 313.023 206.654 317.013C206.654 321.002 203.411 324.246 199.421 324.246ZM199.421 311.818C196.551 311.818 194.219 314.15 194.219 317.02C194.219 319.89 196.551 322.222 199.421 322.222C202.291 322.222 204.623 319.89 204.623 317.02C204.623 314.15 202.291 311.818 199.421 311.818Z" fill="#25AABC"/>
<path d="M201.724 366.839C205.156 366.839 207.938 364.057 207.938 360.625C207.938 357.193 205.156 354.411 201.724 354.411C198.293 354.411 195.511 357.193 195.511 360.625C195.511 364.057 198.293 366.839 201.724 366.839Z" fill="#0F3C8C"/>
<path d="M201.724 367.858C197.735 367.858 194.492 364.615 194.492 360.625C194.492 356.636 197.735 353.392 201.724 353.392C205.714 353.392 208.957 356.636 208.957 360.625C208.957 364.615 205.714 367.858 201.724 367.858ZM201.724 355.43C198.854 355.43 196.523 357.762 196.523 360.632C196.523 363.503 198.854 365.835 201.724 365.835C204.594 365.835 206.926 363.503 206.926 360.632C206.926 357.762 204.594 355.43 201.724 355.43Z" fill="#25AABC"/>
<path d="M106.591 365.239C106.591 394.479 92.4065 419.923 71.4914 433.062C73.1704 434.468 74.8996 435.824 76.6789 437.116C101.648 425.764 119.298 397.859 119.298 365.239C119.298 330.661 99.4667 301.385 72.1085 291.504C70.6376 292.717 69.2026 293.979 67.8107 295.271C90.7347 307.634 106.599 334.313 106.599 365.239H106.591Z" fill="#E01E7F"/>
<path d="M142.875 269.36C142.459 270.186 142.222 271.111 142.222 272.087C142.222 275.481 145.006 278.229 148.436 278.229C151.865 278.229 154.649 275.481 154.649 272.087C154.649 271.707 154.664 271.204 154.592 270.846C150.782 270.092 146.836 269.676 142.868 269.36H142.875Z" fill="#0F3C8C"/>
<path d="M153.487 270.702C153.552 271.018 153.595 271.348 153.602 271.685C153.659 274.555 151.378 276.93 148.508 276.988C145.638 277.045 143.263 274.764 143.205 271.893C143.184 270.996 143.399 270.15 143.786 269.403C143.076 269.346 142.366 269.289 141.648 269.238C141.333 270.078 141.16 270.989 141.182 271.936C141.261 275.919 144.569 279.098 148.558 279.019C152.547 278.94 155.718 275.632 155.64 271.642C155.64 271.463 155.618 271.291 155.604 271.111C154.9 270.968 154.205 270.831 153.494 270.695L153.487 270.702Z" fill="#25AABC"/>
<path d="M127.514 402.688C127.514 402.688 128.906 391.745 129.142 388.079C129.645 380.344 128.626 369.853 128.626 369.853L169.473 377.617C169.473 377.617 165.771 381.678 164.637 389.765C163.496 397.845 170.147 409.153 170.147 409.153C170.147 409.153 162.642 410.646 160.461 416.142C158.28 421.638 158.854 427.214 158.854 427.214L127.521 402.688H127.514Z" fill="#E01E7F"/>
<path d="M129.767 401.439L160.074 424.652C160.669 425.111 160.734 426.03 160.21 426.711C159.686 427.393 158.782 427.573 158.179 427.12L127.872 403.908C127.277 403.449 127.212 402.53 127.736 401.848C128.26 401.167 129.164 400.987 129.767 401.439Z" fill="#AD0B64"/>
<path d="M131.388 385.883L169.674 407.13C170.427 407.546 170.7 408.493 170.284 409.239C169.867 409.993 168.92 410.258 168.167 409.842L129.881 388.595C129.128 388.179 128.855 387.232 129.271 386.486C129.688 385.732 130.635 385.467 131.388 385.883Z" fill="#AD0B64"/>
<path d="M129.975 368.791L168.533 375.342C169.294 375.471 169.789 376.261 169.645 377.1C169.502 377.947 168.77 378.528 168.009 378.399L129.451 371.848C128.69 371.719 128.195 370.929 128.339 370.09C128.482 369.243 129.214 368.662 129.975 368.791Z" fill="#AD0B64"/>
<path d="M41.5861 27.9557H45.64V49.0516H41.7799V39.336C41.7799 38.1305 41.8444 36.1788 41.9664 33.488H41.9018C41.1772 34.715 39.9144 36.6165 38.1206 39.1781L31.247 49.0444H27.1932V27.9485H31.0533V37.6641C31.0533 39.2068 30.9887 41.1514 30.8667 43.4978H30.9313C31.6058 42.3856 32.847 40.5199 34.6551 37.9152L41.5933 27.9485L41.5861 27.9557ZM36.7 22.897C38.3574 22.897 39.3619 21.7202 39.7135 19.3666H43.3584C43.2866 20.3138 43.0929 21.1748 42.7844 21.9498C42.4758 22.7247 42.0382 23.3992 41.4857 23.9589C40.926 24.5186 40.2516 24.9563 39.4408 25.2649C38.6372 25.5734 37.7117 25.7313 36.6713 25.7313C35.6309 25.7313 34.6982 25.5734 33.9017 25.2649C33.1053 24.9563 32.4381 24.5186 31.8999 23.9589C31.3618 23.3992 30.9385 22.7247 30.63 21.9498C30.3214 21.1748 30.1349 20.3066 30.0631 19.3666H33.708C33.8874 20.5434 34.2174 21.426 34.6982 22.0144C35.1789 22.6028 35.8462 22.897 36.7 22.897Z" fill="#BEBEBF"/>
<path d="M69.095 38.5036C69.095 40.1109 68.8654 41.5891 68.4062 42.9237C67.947 44.2655 67.2797 45.4208 66.4044 46.3823C65.529 47.351 64.4528 48.1044 63.1756 48.6354C61.8985 49.1736 60.4492 49.4391 58.8133 49.4391C57.1774 49.4391 55.728 49.1736 54.4509 48.6354C53.1737 48.0972 52.0975 47.351 51.2221 46.3823C50.3468 45.4136 49.6795 44.2584 49.2203 42.9237C48.7611 41.5819 48.5315 40.1109 48.5315 38.5036C48.5315 36.8963 48.7611 35.4182 49.2203 34.0835C49.6795 32.7417 50.3468 31.5865 51.2221 30.625C52.0975 29.6563 53.1737 28.9028 54.4509 28.3719C55.728 27.8337 57.1774 27.5682 58.8133 27.5682C60.4492 27.5682 61.8985 27.8337 63.1756 28.3719C64.4528 28.91 65.529 29.6563 66.4044 30.625C67.2797 31.5936 67.947 32.7489 68.4062 34.0835C68.8654 35.4254 69.095 36.8963 69.095 38.5036ZM65.1057 38.5036C65.1057 37.2192 64.9479 36.0998 64.6322 35.1383C64.3165 34.1768 63.8788 33.3732 63.3263 32.7345C62.7738 32.0959 62.1066 31.6152 61.3388 31.2994C60.5711 30.9837 59.7317 30.8259 58.8133 30.8259C57.8949 30.8259 57.0554 30.9837 56.2877 31.2994C55.5199 31.6152 54.8598 32.0959 54.3002 32.7345C53.7406 33.3732 53.3101 34.1768 52.9944 35.1383C52.6787 36.0998 52.5208 37.2192 52.5208 38.5036C52.5208 39.788 52.6787 40.9074 52.9944 41.8689C53.3101 42.8304 53.7477 43.6269 54.3002 44.2655C54.8598 44.9042 55.5199 45.3777 56.2877 45.7006C57.0554 46.0235 57.8949 46.1814 58.8133 46.1814C59.7317 46.1814 60.5711 46.0235 61.3388 45.7006C62.1066 45.3777 62.7667 44.9042 63.3263 44.2655C63.886 43.6269 64.3165 42.8304 64.6322 41.8689C64.9479 40.9074 65.1057 39.788 65.1057 38.5036Z" fill="#BEBEBF"/>
<path d="M256.735 570.027H252.681V548.931H256.541V558.647C256.541 559.853 256.477 561.804 256.355 564.495H256.419C257.144 563.268 258.407 561.367 260.2 558.805L267.074 548.939H271.128V570.035H267.268V560.319C267.268 558.776 267.332 556.832 267.454 554.485H267.39C266.715 555.597 265.474 557.463 263.666 560.068L256.728 570.035L256.735 570.027ZM261.621 575.086C259.964 575.086 258.959 576.263 258.608 578.616H254.963C255.034 577.669 255.228 576.808 255.537 576.033C255.845 575.258 256.283 574.584 256.835 574.024C257.395 573.464 258.069 573.027 258.88 572.718C259.684 572.41 260.609 572.252 261.65 572.252C262.69 572.252 263.623 572.41 264.419 572.718C265.216 573.027 265.883 573.464 266.421 574.024C266.959 574.584 267.383 575.258 267.691 576.033C268 576.808 268.186 577.676 268.258 578.616H264.613C264.434 577.44 264.104 576.557 263.623 575.969C263.142 575.38 262.475 575.086 261.621 575.086Z" fill="#BEBEBF"/>
<path d="M229.219 559.479C229.219 557.872 229.448 556.394 229.908 555.059C230.367 553.717 231.034 552.562 231.91 551.601C232.785 550.632 233.861 549.879 235.138 549.348C236.415 548.81 237.865 548.544 239.501 548.544C241.137 548.544 242.586 548.81 243.863 549.348C245.14 549.886 246.216 550.632 247.092 551.601C247.967 552.569 248.634 553.725 249.094 555.059C249.553 556.401 249.782 557.872 249.782 559.479C249.782 561.087 249.553 562.565 249.094 563.899C248.634 565.241 247.967 566.397 247.092 567.358C246.216 568.327 245.14 569.08 243.863 569.611C242.586 570.149 241.137 570.415 239.501 570.415C237.865 570.415 236.415 570.149 235.138 569.611C233.861 569.073 232.785 568.327 231.91 567.358C231.034 566.389 230.367 565.234 229.908 563.899C229.448 562.558 229.219 561.087 229.219 559.479ZM233.208 559.479C233.208 560.764 233.366 561.883 233.682 562.845C233.997 563.806 234.435 564.61 234.988 565.248C235.54 565.887 236.207 566.368 236.975 566.684C237.743 566.999 238.582 567.157 239.501 567.157C240.419 567.157 241.258 566.999 242.026 566.684C242.794 566.368 243.454 565.887 244.014 565.248C244.573 564.61 245.004 563.806 245.32 562.845C245.635 561.883 245.793 560.764 245.793 559.479C245.793 558.195 245.635 557.076 245.32 556.114C245.004 555.153 244.566 554.356 244.014 553.717C243.454 553.079 242.794 552.605 242.026 552.282C241.258 551.959 240.419 551.802 239.501 551.802C238.582 551.802 237.743 551.959 236.975 552.282C236.207 552.605 235.547 553.079 234.988 553.717C234.428 554.356 233.997 555.153 233.682 556.114C233.366 557.076 233.208 558.195 233.208 559.479Z" fill="#BEBEBF"/>
<path d="M111.255 57.8415H80.9696C77.7995 57.8415 75.2296 60.4116 75.2296 63.5819C75.2296 66.7523 77.7995 69.3223 80.9696 69.3223H111.255C114.425 69.3223 116.995 66.7523 116.995 63.5819C116.995 60.4116 114.425 57.8415 111.255 57.8415Z" fill="#BEBEBF"/>
<path d="M209.179 205.958C196.171 205.958 184.11 198.438 175.213 184.79C166.782 171.853 162.14 154.754 162.14 136.643C162.14 118.532 166.782 101.433 175.213 88.4952C184.11 74.8403 196.171 67.3275 209.179 67.3275C222.187 67.3275 234.249 74.8474 243.146 88.4952C251.576 101.433 256.218 118.532 256.218 136.643C256.218 154.754 251.576 171.853 243.146 184.79C234.249 198.445 222.187 205.958 209.179 205.958ZM209.179 78.0836C199.931 78.0836 191.07 83.867 184.232 94.3647C176.928 105.58 172.903 120.591 172.903 136.635C172.903 152.68 176.928 167.698 184.232 178.906C191.077 189.404 199.931 195.187 209.179 195.187C218.428 195.187 227.289 189.404 234.127 178.906C241.431 167.691 245.456 152.68 245.456 136.635C245.456 120.591 241.431 105.573 234.127 94.3647C227.282 83.867 218.428 78.0836 209.179 78.0836Z" fill="#BEBEBF"/>
<path d="M76.3776 496.866V532.026H69.9416V515.838C69.9416 513.822 70.0493 510.571 70.2573 506.087H70.1497C68.9371 508.139 66.8349 511.296 63.8429 515.573L52.3845 532.019H45.6328V496.859H52.0688V513.047C52.0688 515.623 51.9612 518.866 51.7531 522.77H51.8607C52.98 520.911 55.0464 517.811 58.0599 513.47L69.6188 496.866H76.3776ZM61.4823 488.435C64.2519 488.435 65.9237 486.476 66.5048 482.551H72.5749C72.4529 484.13 72.13 485.565 71.6134 486.864C71.0968 488.162 70.3721 489.275 69.4466 490.214C68.521 491.154 67.3802 491.879 66.0456 492.396C64.7039 492.912 63.1685 493.171 61.4321 493.171C59.6958 493.171 58.146 492.912 56.8186 492.396C55.4984 491.879 54.3863 491.154 53.4823 490.214C52.5782 489.275 51.8751 488.162 51.3656 486.864C50.8562 485.565 50.5405 484.13 50.4185 482.551H56.4886C56.7827 484.51 57.3352 485.988 58.146 486.964C58.9568 487.94 60.0617 488.435 61.4823 488.435Z" fill="#BEBEBF"/>
<path d="M113.809 514.446C113.809 517.13 113.429 519.584 112.669 521.815C111.908 524.047 110.796 525.97 109.332 527.584C107.869 529.199 106.075 530.447 103.944 531.344C101.813 532.241 99.3949 532.686 96.6756 532.686C93.9563 532.686 91.5383 532.241 89.4073 531.344C87.2764 530.447 85.4826 529.199 84.0189 527.584C82.5552 525.97 81.4431 524.054 80.6826 521.815C79.922 519.584 79.5418 517.123 79.5418 514.446C79.5418 511.77 79.922 509.308 80.6826 507.077C81.4431 504.845 82.5552 502.922 84.0189 501.308C85.4826 499.693 87.2764 498.445 89.4073 497.548C91.5383 496.651 93.9563 496.206 96.6756 496.206C99.3949 496.206 101.813 496.651 103.944 497.548C106.075 498.445 107.869 499.693 109.332 501.308C110.796 502.922 111.908 504.845 112.669 507.077C113.429 509.308 113.809 511.77 113.809 514.446ZM107.158 514.446C107.158 512.308 106.893 510.442 106.369 508.835C105.845 507.235 105.113 505.9 104.188 504.831C103.262 503.762 102.157 502.965 100.88 502.441C99.603 501.918 98.1967 501.652 96.6756 501.652C95.1545 501.652 93.7482 501.918 92.4711 502.441C91.1939 502.965 90.089 503.762 89.1634 504.831C88.2378 505.9 87.506 507.235 86.9822 508.835C86.4584 510.435 86.193 512.308 86.193 514.446C86.193 516.584 86.4584 518.45 86.9822 520.057C87.506 521.657 88.2378 522.992 89.1634 524.054C90.089 525.116 91.1939 525.912 92.4711 526.443C93.7482 526.982 95.1545 527.247 96.6756 527.247C98.1967 527.247 99.603 526.982 100.88 526.443C102.157 525.912 103.262 525.116 104.188 524.054C105.113 522.992 105.845 521.665 106.369 520.057C106.893 518.457 107.158 516.584 107.158 514.446Z" fill="#BEBEBF"/>
<path d="M126.703 518.414C126.122 518.414 125.555 518.407 124.995 518.385C124.436 518.371 123.912 518.335 123.417 518.278V532.019H116.981V496.859H127.126C128.827 496.859 130.312 496.931 131.582 497.081C132.852 497.232 133.985 497.455 134.983 497.749C137.379 498.488 139.23 499.657 140.529 501.272C141.828 502.886 142.473 504.931 142.473 507.421C142.473 509.122 142.122 510.65 141.426 512.006C140.73 513.363 139.697 514.518 138.355 515.465C137.006 516.412 135.356 517.137 133.419 517.646C131.474 518.156 129.243 518.407 126.717 518.407L126.703 518.414ZM123.417 512.867C123.783 512.918 124.256 512.961 124.823 512.989C125.39 513.018 125.985 513.033 126.595 513.033C128.332 513.033 129.781 512.889 130.958 512.609C132.134 512.329 133.074 511.942 133.799 511.44C134.516 510.937 135.033 510.335 135.349 509.624C135.664 508.914 135.822 508.139 135.822 507.299C135.822 506.266 135.585 505.376 135.112 504.623C134.638 503.869 133.813 503.281 132.644 502.865C132.034 502.657 131.273 502.499 130.369 502.406C129.465 502.312 128.36 502.262 127.047 502.262H123.424V512.875L123.417 512.867Z" fill="#37434C"/>
<path d="M164.013 516.154H163.905L150.215 532.026H141.964L157.311 514.288L143.177 496.866H151.162L163.905 512.867H164.013V496.866H170.449V512.867H170.556L183.299 496.866H191.285L177.15 514.288L192.497 532.026H184.246L170.556 516.154H170.449V532.026H164.013V516.154Z" fill="#37434C"/>
<path d="M224.304 496.866V532.026H217.868V515.838C217.868 513.822 217.976 510.571 218.184 506.087H218.076C216.864 508.139 214.761 511.296 211.769 515.573L200.311 532.019H193.559V496.859H199.995V513.047C199.995 515.623 199.888 518.866 199.68 522.77H199.787C200.906 520.911 202.973 517.811 205.986 513.47L217.545 496.866H224.304Z" fill="#37434C"/>
<path d="M229.054 532.026V496.866H235.49V512.867H235.597L248.864 496.866H256.85L242.191 514.288L258.062 532.026H249.811L235.597 516.154H235.49V532.026H229.054Z" fill="#37434C"/>
</svg>
