<svg width="463" height="486" viewBox="0 0 463 486" fill="none" xmlns="http://www.w3.org/2000/svg">
<path d="M357.319 396.889L357.334 396.866L357.137 396.73C355.899 395.674 354.571 394.748 353.167 393.966L309.766 369.598L279.602 401.886L324.575 434.106C326.472 436.103 330.525 437.933 332.916 439.171L333.205 439.391L333.243 439.322C337.281 441.335 341.85 442.185 346.533 441.479C359.376 439.535 368.097 426.732 366.002 412.881C365.015 406.351 361.782 400.769 357.319 396.882V396.889Z" fill="#E01E7F"/>
<path d="M146.705 452.976L146.682 452.961L146.788 452.756C147.373 451.29 147.813 448.032 148.671 446.711L166.462 406.685L219.245 419.047L192.793 467.852C192.079 470.411 189.408 473.874 187.912 476.045L187.76 476.364L187.692 476.326C185.127 479.926 181.536 482.826 177.119 484.505C165.005 489.099 151.373 482.751 146.667 470.343C144.451 464.488 144.633 458.337 146.697 452.983L146.705 452.976Z" fill="#E01E7F"/>
<path d="M133.171 89.422C139.798 87.1515 146.614 85.1924 153.612 83.6053C216.444 69.3596 278.76 87.1363 322.244 125.887L345.22 104.632C345.22 104.632 324.142 101.526 316.711 94.4718C305.66 83.9698 309.03 62.9582 309.03 62.9582C309.03 62.9582 289.462 73.9006 275.754 67.6131C262.039 61.3255 259.693 39.8051 259.693 39.8051C259.693 39.8051 239.799 49.6009 227.495 46.0243C211.434 41.3542 209.324 16.8875 209.324 16.8875C209.324 16.8875 200.064 33.4416 180.739 31.0724C161.407 28.7032 153.688 4.19846 153.688 4.19846C153.688 4.19846 149.103 14.2752 132.481 15.8775C115.858 17.4798 107.152 1.38121 107.152 1.38121L130.583 88.8297L133.171 89.422Z" fill="#E01E7F"/>
<path d="M157.126 85.5569L150.212 7.22073C150.075 5.67922 151.297 4.31236 152.936 4.16808C154.583 4.0238 156.026 5.15526 156.162 6.69677L163.077 85.0329C163.214 86.5744 161.992 87.9413 160.352 88.0856C158.705 88.2298 157.263 87.0984 157.126 85.5569Z" fill="#AD0B64"/>
<path d="M197.317 84.5469L205.104 18.7327C205.256 17.4418 206.706 16.5457 208.345 16.7432C209.985 16.9406 211.192 18.148 211.04 19.4465L203.252 85.2607C203.1 86.5516 201.651 87.4477 200.011 87.2503C198.372 87.0528 197.165 85.8454 197.317 84.5469Z" fill="#AD0B64"/>
<path d="M237.788 88.7234L256.247 39.0685C256.612 38.0889 258.152 37.77 259.693 38.3471C261.242 38.9242 262.198 40.1924 261.834 41.172L243.374 90.8269C243.01 91.8064 241.469 92.1254 239.928 91.5483C238.38 90.9711 237.423 89.703 237.788 88.7234Z" fill="#AD0B64"/>
<path d="M279.936 108.368L305.637 62.0469C306.145 61.1357 307.717 61.0446 309.159 61.8495C310.601 62.6544 311.36 64.0516 310.851 64.9629L285.151 111.284C284.642 112.195 283.071 112.287 281.629 111.482C280.187 110.677 279.428 109.279 279.936 108.368Z" fill="#AD0B64"/>
<path d="M305.311 140.588L344.294 104.716C345.061 104.009 346.579 104.42 347.694 105.634C348.81 106.849 349.091 108.414 348.324 109.12L309.341 144.992C308.574 145.699 307.056 145.289 305.941 144.074C304.825 142.859 304.544 141.294 305.311 140.588Z" fill="#AD0B64"/>
<path d="M126.796 89.9308L102.089 4.00102C101.604 2.30764 102.492 0.568688 104.07 0.113069C105.657 -0.350144 107.342 0.652218 107.828 2.3456L132.534 88.2754C133.02 89.9688 130.56 90.432 130.56 90.432L129.801 90.5459C129.801 90.5459 127.281 91.6242 126.796 89.9308Z" fill="#AD0B64"/>
<path d="M385.13 176.552L427.126 133.298C427.126 133.298 423.217 149.351 427.012 163.08C430.679 176.377 450.072 176.043 450.072 176.043C450.072 176.043 432.667 190.683 436.599 203.767C440.531 216.851 460.205 220.732 460.205 220.732C460.205 220.732 446.557 228.523 447.354 241.599C448.151 254.675 460.948 264.418 460.948 264.418L403.536 248.866L385.137 176.552H385.13Z" fill="#E01E7F"/>
<path d="M371.551 191.374L423.559 132.395C424.584 131.233 426.413 131.18 427.65 132.265C428.887 133.359 429.062 135.189 428.037 136.351L376.029 195.331C375.004 196.493 373.175 196.546 371.938 195.46C370.7 194.366 370.526 192.536 371.551 191.374Z" fill="#AD0B64"/>
<path d="M373.365 203.608L446.254 174.091C447.688 173.514 449.351 174.274 449.973 175.8C450.595 177.334 449.935 179.042 448.493 179.627L375.604 209.144C374.169 209.721 372.507 208.961 371.885 207.435C371.262 205.901 371.922 204.193 373.365 203.608Z" fill="#AD0B64"/>
<path d="M379.194 226.609L457.404 218.415C458.945 218.256 460.326 219.448 460.501 221.088C460.675 222.729 459.567 224.194 458.026 224.354L379.816 232.547C378.276 232.707 376.894 231.514 376.72 229.874C376.545 228.234 377.653 226.768 379.194 226.609Z" fill="#AD0B64"/>
<path d="M385.38 237.149L461.002 258.7C462.489 259.125 463.332 260.75 462.876 262.337C462.429 263.924 460.85 264.873 459.362 264.448L383.741 242.897C382.253 242.472 381.41 240.847 381.866 239.26C382.314 237.673 383.892 236.724 385.38 237.149Z" fill="#AD0B64"/>
<path d="M403.551 248.691L385.152 176.377L364.492 170.021C359.497 168.275 355.277 164.865 352.378 160.438C311.648 98.2611 232.945 65.0084 153.422 83.0358C52.2291 105.976 -11.9616 203.251 10.0349 300.298C10.2171 301.088 10.4144 301.877 10.6042 302.659C3.50729 306.73 -0.553492 314.149 1.09359 321.439C3.06705 330.164 12.5093 335.555 22.7106 334.135C32.7677 333.535 48.4415 331.91 66.9238 327.597C97.8085 320.383 119.061 303.069 119.061 303.069C110.902 337.271 73.9675 363.135 55.5308 374.176C53.4814 375.073 51.6067 376.166 49.9444 377.404C49.8837 377.434 49.8154 377.472 49.7622 377.51C49.7622 377.51 49.7774 377.525 49.7774 377.533C44.0695 381.876 40.9803 387.959 42.3086 393.821C44.358 402.873 56.1304 407.915 68.5936 405.09C71.4931 404.43 74.1649 403.397 76.5406 402.098C119.069 433.893 175.851 447.478 233.067 434.5C312.324 416.534 368.871 352.96 379.095 279.605C380.112 272.323 383.71 265.64 389.304 260.864L403.543 248.699L403.551 248.691Z" fill="#0280C6"/>
<path d="M139.843 275.877C126.758 218.142 84.609 174.555 36.6463 160.863C9.36696 200.646 -1.9501 250.354 9.30623 300.009C9.4884 300.799 9.68575 301.589 9.8755 302.371C2.77862 306.441 -1.28216 313.86 0.364928 321.15C2.33839 329.875 11.7807 335.267 21.9819 333.847C32.039 333.247 47.7129 331.622 66.1951 327.308C97.0798 320.094 118.332 302.781 118.332 302.781C110.173 336.983 73.2388 362.847 54.8021 373.888C52.7528 374.784 50.878 375.877 49.2157 377.115C49.155 377.146 49.0867 377.184 49.0336 377.222C49.0336 377.222 49.0487 377.237 49.0487 377.244C43.3409 381.588 40.2517 387.67 41.5799 393.533C43.6293 402.584 55.4018 407.627 67.865 404.802C70.7644 404.141 73.4362 403.108 75.8119 401.81C84.3434 408.188 93.4593 413.823 103.031 418.668C136.17 385.051 152.177 330.338 139.836 275.892L139.843 275.877Z" fill="#39BAAA"/>
<path d="M293.146 189.258C313.566 184.606 326.077 163.072 321.089 141.163C316.102 119.253 295.505 105.264 275.084 109.916C254.664 114.569 242.154 136.102 247.141 158.012C252.129 179.921 272.726 193.911 293.146 189.258Z" fill="#0280C6"/>
<path d="M293.766 192.149C271.883 197.108 249.758 182.049 244.437 158.57C239.116 135.098 252.589 111.96 274.464 107.001C296.346 102.043 318.472 117.101 323.793 140.58C329.113 164.052 315.641 187.19 293.766 192.149ZM275.777 112.795C256.877 117.078 245.234 137.065 249.833 157.347C254.433 177.63 273.553 190.638 292.453 186.355C311.352 182.072 322.996 162.086 318.396 141.803C313.796 121.52 294.677 108.505 275.777 112.795Z" fill="#1141BA"/>
<path d="M240.813 162.454C261.234 157.802 273.744 136.269 268.757 114.359C263.769 92.4493 243.172 78.4597 222.752 83.1124C202.332 87.7651 189.821 109.298 194.809 131.208C199.796 153.118 220.393 167.107 240.813 162.454Z" fill="#0280C6"/>
<path d="M241.545 165.829C219.662 170.788 197.537 155.73 192.216 132.25C186.895 108.778 201.635 85.8226 222.478 81.7221C238.585 78.5555 266.251 90.7813 271.572 114.261C276.893 137.733 263.42 160.871 241.545 165.829ZM223.731 87.2503C204.831 91.5331 193.013 110.745 197.613 131.028C202.212 151.31 221.332 164.318 240.232 160.035C259.131 155.753 270.775 135.766 266.175 115.483C261.576 95.2008 235.564 84.5697 223.731 87.2503Z" fill="#1141BA"/>
<path d="M317.139 270.118C337.559 265.466 350.079 243.972 345.102 222.112C340.126 200.251 319.538 186.301 299.118 190.954C278.698 195.607 266.178 217.1 271.154 238.961C276.131 260.821 296.719 274.771 317.139 270.118Z" fill="#0280C6"/>
<path d="M317.766 272.991C295.883 277.95 273.765 262.929 268.46 239.511C263.154 216.084 276.635 192.999 298.51 188.033C320.385 183.067 342.51 198.095 347.816 221.514C353.121 244.932 339.641 268.025 317.766 272.983V272.991ZM299.823 193.812C280.923 198.095 269.272 218.051 273.857 238.28C278.441 258.518 297.553 271.495 316.453 267.205C335.353 262.922 347.004 242.973 342.419 222.736C337.835 202.499 318.722 189.522 299.815 193.812H299.823Z" fill="#1141BA"/>
<path d="M333.037 352.798C353.457 348.145 365.976 326.652 361 304.791C356.024 282.931 335.436 268.981 315.015 273.633C294.595 278.286 282.075 299.779 287.052 321.64C292.028 343.501 312.616 357.45 333.037 352.798Z" fill="#0280C6"/>
<path d="M333.668 355.671C311.785 360.629 289.667 345.609 284.361 322.19C279.056 298.764 292.536 275.679 314.411 270.713C336.294 265.754 358.412 280.775 363.717 304.193C369.023 327.612 355.543 350.704 333.668 355.663V355.671ZM315.724 276.492C296.825 280.775 285.174 300.731 289.758 320.96C294.343 341.197 313.455 354.175 332.355 349.884C351.254 345.594 362.905 325.653 358.321 305.416C353.736 285.179 334.624 272.201 315.717 276.492H315.724Z" fill="#1141BA"/>
<path d="M138.401 87.068C138.424 90.1207 138.758 92.7784 139.471 95.8994C144.435 117.815 165.02 131.825 185.445 127.193C205.833 122.568 218.349 101.124 213.461 79.2541C188.284 77.0368 162.804 79.9604 138.409 87.068H138.401Z" fill="#0280C6"/>
<path d="M210.212 78.6239C210.357 79.1706 210.599 79.1858 210.729 79.7401C215.328 100.023 203.685 120.009 184.785 124.292C165.885 128.575 146.766 115.567 142.166 95.2843C141.399 91.9128 141.263 89.5132 141.354 86.2251C139.494 86.7491 137.498 87.3642 135.653 87.9413C135.707 91.1002 136.041 93.2948 136.769 96.5069C142.09 119.979 164.215 135.045 186.098 130.086C207.966 125.127 221.324 102.665 216.034 79.2086C214.099 79.0263 212.155 78.753 210.212 78.6239Z" fill="#1141BA"/>
<path d="M291.633 409.996C305.364 401.255 318.115 390.814 329.554 378.793C330.639 373.182 330.609 367.19 329.243 361.176C324.286 339.314 303.709 325.342 283.291 329.974C262.866 334.606 250.327 356.081 255.283 377.951C259.458 396.373 274.722 409.183 291.633 409.996Z" fill="#0280C6"/>
<path d="M287.602 412.54C290.57 410.748 293.5 408.872 296.384 406.928C278.927 408.576 262.228 396.077 257.985 377.343C253.401 357.106 265.044 337.157 283.952 332.875C302.851 328.592 321.964 341.569 326.556 361.799C328.218 369.142 327.74 376.439 325.554 382.97C328.051 380.494 330.495 377.943 332.878 375.323C333.349 370.539 333.083 365.565 331.952 360.576C326.647 337.15 304.521 322.137 282.646 327.096C260.763 332.054 247.283 355.147 252.596 378.573C256.741 396.844 271.109 410.003 287.618 412.547L287.602 412.54Z" fill="#1141BA"/>
<path d="M285.345 326.489C305.767 321.843 318.152 299.731 313.009 277.1C307.865 254.469 287.14 239.888 266.718 244.534C246.297 249.18 233.911 271.292 239.055 293.923C244.198 316.554 264.923 331.134 285.345 326.489Z" fill="#0280C6"/>
<path d="M286.016 329.465C264.133 334.424 241.864 318.735 236.368 294.489C230.873 270.242 244.201 246.474 266.077 241.515C287.952 236.557 310.229 252.245 315.724 276.499C321.22 300.746 307.891 324.514 286.016 329.473V329.465ZM267.435 247.492C248.535 251.774 237.014 272.308 241.765 293.259C246.516 314.209 265.758 327.764 284.657 323.481C303.557 319.198 315.079 298.665 310.328 277.714C305.576 256.763 286.335 243.209 267.435 247.492Z" fill="#1141BA"/>
<path d="M262.435 245.397C282.856 240.752 295.242 218.639 290.098 196.008C284.955 173.377 264.23 158.797 243.808 163.442C223.386 168.088 211.001 190.2 216.144 212.831C221.288 235.463 242.013 250.043 262.435 245.397Z" fill="#0280C6"/>
<path d="M263.094 248.38C241.211 253.339 218.941 237.65 213.446 213.404C207.95 189.157 221.279 165.389 243.154 160.43C265.037 155.472 287.306 171.16 292.802 195.414C298.297 219.661 284.969 243.429 263.094 248.388V248.38ZM244.513 166.407C225.613 170.689 214.091 191.223 218.842 212.173C223.594 233.124 242.835 246.679 261.735 242.396C280.635 238.113 292.157 217.58 287.405 196.629C282.654 175.678 263.412 162.124 244.513 166.407Z" fill="#1141BA"/>
<path d="M248.314 379.635C268.734 374.983 281.245 353.45 276.257 331.54C271.27 309.63 250.673 295.641 230.252 300.293C209.832 304.946 197.322 326.479 202.309 348.389C207.297 370.299 227.894 384.288 248.314 379.635Z" fill="#0280C6"/>
<path d="M248.945 382.522C227.063 387.481 204.937 372.422 199.616 348.943C194.296 325.471 207.768 302.333 229.643 297.374C251.526 292.416 273.652 307.474 278.972 330.953C284.293 354.425 270.82 377.563 248.945 382.522ZM230.956 303.168C212.057 307.451 200.413 327.438 205.013 347.72C209.613 368.003 228.733 381.011 247.632 376.728C266.532 372.445 278.175 352.459 273.576 332.176C268.976 311.893 249.856 298.878 230.956 303.168Z" fill="#1141BA"/>
<path d="M227.097 286.031C247.517 281.379 260.028 259.846 255.04 237.936C250.053 216.026 229.456 202.037 209.035 206.689C188.615 211.342 176.104 232.875 181.092 254.785C186.08 276.695 206.677 290.684 227.097 286.031Z" fill="#0280C6"/>
<path d="M227.723 288.923C205.84 293.881 183.715 278.823 178.394 255.343C173.073 231.871 186.546 208.734 208.421 203.775C230.304 198.816 252.429 213.874 257.75 237.354C263.071 260.826 249.598 283.964 227.723 288.923ZM209.734 209.569C190.834 213.852 179.191 233.838 183.791 254.121C188.39 274.403 207.51 287.411 226.41 283.129C245.31 278.846 256.953 258.859 252.353 238.577C247.754 218.294 228.634 205.278 209.734 209.569Z" fill="#1141BA"/>
<path d="M206.16 205.934C226.58 201.281 239.091 179.748 234.103 157.838C229.116 135.929 208.519 121.939 188.098 126.592C167.678 131.244 155.168 152.777 160.155 174.687C165.143 196.597 185.74 210.586 206.16 205.934Z" fill="#0280C6"/>
<path d="M206.782 208.825C184.899 213.783 162.773 198.725 157.453 175.246C152.132 151.774 165.605 128.636 187.48 123.677C209.362 118.718 231.488 133.777 236.809 157.256C242.129 180.728 228.657 203.866 206.782 208.825ZM188.793 129.471C169.893 133.754 158.25 153.74 162.849 174.023C167.449 194.306 186.569 207.314 205.468 203.031C224.368 198.748 236.012 178.761 231.412 158.479C226.812 138.196 207.692 125.181 188.793 129.471Z" fill="#1141BA"/>
<path d="M152.474 180.925C172.896 176.28 185.202 153.816 179.96 130.752C174.718 107.687 153.913 92.7552 133.491 97.4008C113.069 102.046 100.763 124.51 106.006 147.575C111.248 170.639 132.052 185.571 152.474 180.925Z" fill="#0280C6"/>
<path d="M153.141 183.978C131.259 188.937 108.905 172.869 103.304 148.167C97.7022 123.457 110.947 99.3166 132.83 94.3579C154.713 89.3993 177.066 105.467 182.667 130.177C188.269 154.887 175.024 179.027 153.141 183.986V183.978ZM134.211 100.448C115.312 104.731 103.865 125.591 108.708 146.936C113.551 168.282 132.86 182.163 151.767 177.881C170.667 173.598 182.113 152.738 177.271 131.392C172.428 110.046 153.119 96.1652 134.211 100.448Z" fill="#1141BA"/>
<path d="M62.8326 131.164C71.8346 139.852 84.0701 143.929 96.5864 141.089C117.012 136.457 129.543 114.944 124.572 93.029C124.473 92.6038 124.397 92.3304 124.291 91.9128C101.915 100.691 81.1555 113.805 62.8326 131.164Z" fill="#0280C6"/>
<path d="M121.596 93.1353C121.665 93.4163 121.703 93.5302 121.763 93.8188C126.363 114.101 114.72 134.088 95.8198 138.371C84.351 140.968 72.9352 137.315 64.6012 129.418C63.2121 130.694 61.9597 132.106 60.6087 133.435C70.2938 142.889 83.6375 147.225 97.1329 144.165C119.016 139.206 132.481 116.068 127.16 92.5962C127.031 92.0343 126.925 91.6242 126.78 91.0775C125.042 91.7305 123.312 92.4367 121.589 93.1429L121.596 93.1353Z" fill="#1141BA"/>
<path d="M214.801 432.705C235.223 428.059 247.565 405.758 242.369 382.894C237.172 360.03 216.404 345.261 195.983 349.906C175.561 354.552 163.218 376.853 168.415 399.717C173.611 422.581 194.379 437.351 214.801 432.705Z" fill="#0280C6"/>
<path d="M215.465 435.738C193.582 440.697 171.267 424.803 165.718 400.306C160.162 375.809 173.445 351.844 195.328 346.885C217.211 341.926 239.526 357.82 245.074 382.317C250.63 406.814 237.347 430.78 215.465 435.738ZM196.694 352.929C177.794 357.212 166.318 377.92 171.115 399.084C175.912 420.247 195.191 433.977 214.099 429.694C232.998 425.411 244.475 404.703 239.678 383.539C234.881 362.376 215.601 348.639 196.694 352.929Z" fill="#1141BA"/>
<path d="M202.645 439.315C202.463 438.085 202.25 436.854 201.969 435.624C196.785 412.76 176.026 397.975 155.601 402.6C141.726 405.743 131.585 417.043 128.124 431.129C152.929 438.905 178.22 441.456 202.645 439.315Z" fill="#0280C6"/>
<path d="M131.114 430.985C134.576 418.44 143.813 408.447 156.291 405.622C175.191 401.339 194.478 415.068 199.275 436.232C199.518 437.31 199.715 438.396 199.874 439.467C201.726 439.36 203.571 439.224 205.415 439.064C205.218 437.713 204.983 436.361 204.671 435.009C199.115 410.512 176.8 394.619 154.925 399.577C140.39 402.873 129.657 414.56 125.71 429.208C127.509 429.823 129.308 430.415 131.114 430.985Z" fill="#1141BA"/>
<path d="M149.058 435.442C149.263 434.743 149.452 434.037 149.619 433.323C152.769 419.45 146.955 405.424 135.744 396.221C127.38 405.197 120.033 414.78 113.687 424.803C125.315 429.534 137.156 433.073 149.058 435.442Z" fill="#0280C6"/>
<path d="M146.91 434.007C146.773 434.599 146.621 435.191 146.454 435.769C148.473 436.224 150.5 436.634 152.527 437.022C152.678 436.475 152.823 435.936 152.952 435.381C156.253 420.847 150.348 406.123 138.834 396.236C137.498 397.595 136.185 398.962 134.902 400.344C144.724 408.88 149.748 421.523 146.91 434.007Z" fill="#1141BA"/>
<path d="M195.055 345.577C215.475 340.925 227.986 319.392 222.998 297.482C218.011 275.572 197.414 261.583 176.993 266.235C156.573 270.888 144.063 292.421 149.05 314.331C154.038 336.241 174.635 350.23 195.055 345.577Z" fill="#0280C6"/>
<path d="M195.685 348.472C173.802 353.431 151.601 338.031 146.189 314.149C140.777 290.259 154.166 266.787 176.049 261.828C197.931 256.87 220.133 272.27 225.545 296.152C230.956 320.041 217.567 343.506 195.685 348.472ZM177.385 267.721C158.485 272.004 146.91 292.286 151.585 312.926C156.261 333.566 175.449 346.87 194.349 342.579C213.248 338.296 224.824 318.014 220.148 297.382C215.472 276.742 196.284 263.438 177.385 267.721Z" fill="#1141BA"/>
<path d="M177.236 262.403C197.657 257.75 210.167 236.217 205.18 214.308C200.192 192.398 179.595 178.408 159.175 183.061C138.754 187.714 126.244 209.247 131.231 231.157C136.219 253.066 156.816 267.056 177.236 262.403Z" fill="#0280C6"/>
<path d="M177.863 265.299C155.98 270.257 133.855 255.199 128.534 231.72C123.213 208.248 136.686 185.11 158.561 180.151C180.443 175.192 202.569 190.251 207.89 213.73C213.211 237.202 199.738 260.34 177.863 265.299ZM159.874 185.945C140.974 190.228 129.331 210.214 133.93 230.497C138.53 250.78 157.65 263.788 176.55 259.505C195.449 255.222 207.093 235.235 202.493 214.953C197.893 194.67 178.774 181.655 159.874 185.945Z" fill="#1141BA"/>
<path d="M132.913 207.724C138.219 198.938 140.245 187.866 137.71 176.681C132.746 154.765 112.162 140.755 91.7363 145.387C82.8633 147.4 75.4856 152.601 70.3773 159.633C94.446 168.829 116.215 185.527 132.913 207.724Z" fill="#0280C6"/>
<path d="M73.1857 160.734C77.8917 154.598 84.5104 150.073 92.3966 148.28C111.296 143.998 130.416 157.006 135.016 177.288C137.285 187.304 135.593 197.244 131.023 205.263C132.291 206.881 133.528 208.521 134.735 210.192C140.807 200.631 143.206 188.398 140.412 176.058C135.092 152.586 112.966 137.52 91.0835 142.479C81.2466 144.711 73.1174 150.619 67.6221 158.585C69.4893 159.253 71.3489 159.975 73.1857 160.726V160.734Z" fill="#1141BA"/>
<path d="M165.278 324.4C162.5 352.269 152.633 378.004 137.225 398.658C143.691 401.088 150.796 401.734 157.878 400.124C178.303 395.492 190.834 373.979 185.863 352.064C183.054 339.656 175.229 329.792 165.271 324.4H165.278Z" fill="#0280C6"/>
<path d="M166.364 321.727C166.197 323.831 165.984 325.919 165.741 327.999C174.181 333.163 180.732 341.896 183.176 352.679C187.776 372.962 176.132 392.948 157.232 397.231C151.35 398.567 145.452 398.218 139.972 396.509C138.796 398.172 137.574 399.805 136.329 401.407C143.289 404.042 150.933 404.749 158.553 403.025C180.436 398.066 193.901 374.928 188.58 351.456C185.559 338.122 177.111 327.513 166.371 321.735L166.364 321.727Z" fill="#1141BA"/>
<path d="M79.2661 294.584C100.092 290.155 113.405 269.765 109.002 249.04C104.599 228.316 84.1468 215.106 63.321 219.534C42.4952 223.963 29.182 244.354 33.5852 265.078C37.9883 285.802 58.4404 299.013 79.2661 294.584Z" fill="#F7F7F7"/>
<path d="M89.6704 279.441C97.9819 277.673 103.295 269.536 101.538 261.266C99.7811 252.996 91.619 247.725 83.3075 249.492C74.9961 251.26 69.6827 259.397 71.4398 267.667C73.1968 275.937 81.359 281.208 89.6704 279.441Z" fill="#05399F"/>
<path d="M144.17 151.546C150.772 151.546 156.124 146.191 156.124 139.586C156.124 132.98 150.772 127.626 144.17 127.626C137.567 127.626 132.215 132.98 132.215 139.586C132.215 146.191 137.567 151.546 144.17 151.546Z" fill="#0F3C8C"/>
<path d="M147.244 153.156C139.767 154.849 132.299 150.148 130.606 142.661C128.913 135.181 133.619 127.717 141.096 126.023C148.572 124.33 156.041 129.031 157.733 136.518C159.426 143.998 154.72 151.462 147.244 153.156ZM141.953 129.828C136.572 131.05 133.187 136.419 134.409 141.803C135.631 147.187 140.997 150.574 146.378 149.351C151.76 148.129 155.145 142.76 153.923 137.376C152.701 131.992 147.335 128.605 141.953 129.828Z" fill="#25AABC"/>
<path d="M103.797 189.112C110.4 189.112 115.752 183.757 115.752 177.152C115.752 170.546 110.4 165.192 103.797 165.192C97.1948 165.192 91.8425 170.546 91.8425 177.152C91.8425 183.757 97.1948 189.112 103.797 189.112Z" fill="#0F3C8C"/>
<path d="M106.871 190.721C99.3948 192.415 91.926 187.714 90.2334 180.227C88.5408 172.747 93.2467 165.283 100.723 163.589C108.2 161.896 115.668 166.596 117.361 174.084C119.054 181.563 114.348 189.028 106.871 190.721ZM101.581 167.394C96.1993 168.616 92.8141 173.985 94.0361 179.369C95.2581 184.753 100.624 188.14 106.006 186.917C111.387 185.694 114.773 180.326 113.551 174.942C112.329 169.558 106.962 166.171 101.581 167.394Z" fill="#25AABC"/>
<path d="M170.865 234.081C177.467 234.081 182.819 228.726 182.819 222.121C182.819 215.516 177.467 210.161 170.865 210.161C164.262 210.161 158.91 215.516 158.91 222.121C158.91 228.726 164.262 234.081 170.865 234.081Z" fill="#0F3C8C"/>
<path d="M173.939 235.691C166.462 237.384 158.993 232.684 157.301 225.197C155.608 217.717 160.314 210.252 167.79 208.559C175.267 206.865 182.736 211.566 184.428 219.053C186.121 226.533 181.415 233.998 173.939 235.691ZM168.648 212.363C163.267 213.586 159.881 218.955 161.103 224.338C162.326 229.722 167.692 233.109 173.073 231.887C178.455 230.664 181.84 225.295 180.618 219.911C179.396 214.527 174.03 211.141 168.648 212.363Z" fill="#25AABC"/>
<path d="M189.544 316.275C196.146 316.275 201.499 310.92 201.499 304.315C201.499 297.71 196.146 292.355 189.544 292.355C182.942 292.355 177.589 297.71 177.589 304.315C177.589 310.92 182.942 316.275 189.544 316.275Z" fill="#0F3C8C"/>
<path d="M192.618 317.877C185.142 319.57 177.673 314.87 175.98 307.383C174.288 299.903 178.994 292.438 186.47 290.745C193.946 289.052 201.415 293.752 203.108 301.239C204.801 308.719 200.095 316.184 192.618 317.877ZM187.328 294.549C181.946 295.772 178.561 301.141 179.783 306.525C181.005 311.909 186.371 315.295 191.753 314.073C197.134 312.85 200.52 307.481 199.298 302.098C198.076 296.714 192.709 293.327 187.328 294.549Z" fill="#25AABC"/>
<path d="M278.137 298.346C284.74 298.346 290.092 292.992 290.092 286.386C290.092 279.781 284.74 274.426 278.137 274.426C271.535 274.426 266.183 279.781 266.183 286.386C266.183 292.992 271.535 298.346 278.137 298.346Z" fill="#0F3C8C"/>
<path d="M281.211 299.949C273.735 301.642 266.266 296.941 264.574 289.454C262.881 281.974 267.587 274.51 275.063 272.816C282.54 271.123 290.009 275.823 291.701 283.311C293.394 290.791 288.688 298.255 281.211 299.949ZM275.921 276.621C270.54 277.843 267.154 283.212 268.376 288.596C269.598 293.98 274.965 297.367 280.346 296.144C285.728 294.922 289.113 289.553 287.891 284.169C286.669 278.785 281.303 275.398 275.921 276.621Z" fill="#25AABC"/>
<path d="M225.643 259.133C232.246 259.133 237.598 253.778 237.598 247.173C237.598 240.567 232.246 235.213 225.643 235.213C219.041 235.213 213.689 240.567 213.689 247.173C213.689 253.778 219.041 259.133 225.643 259.133Z" fill="#0F3C8C"/>
<path d="M228.717 260.742C221.241 262.436 213.772 257.735 212.08 250.248C210.387 242.768 215.093 235.304 222.569 233.61C230.046 231.917 237.514 236.617 239.207 244.105C240.9 251.585 236.194 259.049 228.717 260.742ZM223.427 237.415C218.045 238.637 214.66 244.006 215.882 249.39C217.104 254.774 222.471 258.161 227.852 256.938C233.234 255.715 236.619 250.347 235.397 244.963C234.175 239.579 228.808 236.192 223.427 237.415Z" fill="#25AABC"/>
<path d="M257.446 215.386C264.049 215.386 269.401 210.031 269.401 203.426C269.401 196.82 264.049 191.466 257.446 191.466C250.844 191.466 245.492 196.82 245.492 203.426C245.492 210.031 250.844 215.386 257.446 215.386Z" fill="#0F3C8C"/>
<path d="M260.521 216.988C253.044 218.681 245.575 213.981 243.883 206.493C242.19 199.014 246.896 191.549 254.372 189.856C261.849 188.162 269.318 192.863 271.01 200.35C272.703 207.83 267.997 215.294 260.521 216.988ZM255.23 193.66C249.849 194.883 246.463 200.251 247.685 205.635C248.907 211.019 254.274 214.406 259.655 213.183C265.037 211.961 268.422 206.592 267.2 201.208C265.978 195.824 260.612 192.438 255.23 193.66Z" fill="#25AABC"/>
<path d="M331.451 327.476C338.054 327.476 343.406 322.121 343.406 315.516C343.406 308.91 338.054 303.556 331.451 303.556C324.849 303.556 319.497 308.91 319.497 315.516C319.497 322.121 324.849 327.476 331.451 327.476Z" fill="#0F3C8C"/>
<path d="M334.525 329.085C327.049 330.779 319.58 326.078 317.888 318.591C316.195 311.111 320.901 303.647 328.377 301.953C335.854 300.26 343.322 304.96 345.015 312.448C346.708 319.927 342.002 327.392 334.525 329.085ZM329.235 305.758C323.853 306.98 320.468 312.349 321.69 317.733C322.912 323.117 328.279 326.504 333.66 325.281C339.042 324.058 342.427 318.69 341.205 313.306C339.983 307.922 334.616 304.535 329.235 305.758Z" fill="#25AABC"/>
<path d="M295.405 382.864C302.008 382.864 307.36 377.509 307.36 370.904C307.36 364.298 302.008 358.944 295.405 358.944C288.803 358.944 283.451 364.298 283.451 370.904C283.451 377.509 288.803 382.864 295.405 382.864Z" fill="#0F3C8C"/>
<path d="M298.479 384.466C291.003 386.159 283.534 381.459 281.841 373.971C280.149 366.492 284.855 359.027 292.331 357.334C299.808 355.64 307.276 360.341 308.969 367.828C310.662 375.308 305.956 382.772 298.479 384.466ZM293.189 361.138C287.807 362.361 284.422 367.729 285.644 373.113C286.866 378.497 292.233 381.884 297.614 380.661C302.996 379.439 306.381 374.07 305.159 368.686C303.937 363.302 298.57 359.916 293.189 361.138Z" fill="#25AABC"/>
<path d="M242.706 354.456C249.309 354.456 254.661 349.101 254.661 342.496C254.661 335.89 249.309 330.536 242.706 330.536C236.104 330.536 230.752 335.89 230.752 342.496C230.752 349.101 236.104 354.456 242.706 354.456Z" fill="#0F3C8C"/>
<path d="M245.78 356.058C238.304 357.751 230.835 353.051 229.142 345.564C227.45 338.084 232.156 330.619 239.632 328.926C247.109 327.233 254.577 331.933 256.27 339.42C257.963 346.9 253.257 354.365 245.78 356.058ZM240.49 332.73C235.108 333.953 231.723 339.322 232.945 344.706C234.167 350.089 239.533 353.476 244.915 352.254C250.296 351.031 253.682 345.662 252.46 340.278C251.238 334.895 245.871 331.508 240.49 332.73Z" fill="#25AABC"/>
<path d="M209.309 403.473C215.911 403.473 221.264 398.118 221.264 391.513C221.264 384.907 215.911 379.553 209.309 379.553C202.707 379.553 197.355 384.907 197.355 391.513C197.355 398.118 202.707 403.473 209.309 403.473Z" fill="#0F3C8C"/>
<path d="M212.383 405.075C204.907 406.768 197.438 402.068 195.745 394.581C194.053 387.101 198.759 379.636 206.235 377.943C213.711 376.25 221.18 380.95 222.873 388.437C224.566 395.917 219.86 403.382 212.383 405.075ZM207.093 381.747C201.711 382.97 198.326 388.339 199.548 393.723C200.77 399.106 206.136 402.493 211.518 401.271C216.899 400.048 220.285 394.679 219.063 389.295C217.841 383.912 212.474 380.525 207.093 381.747Z" fill="#25AABC"/>
<path d="M157.749 377.115C164.351 377.115 169.703 371.761 169.703 365.155C169.703 358.55 164.351 353.195 157.749 353.195C151.146 353.195 145.794 358.55 145.794 365.155C145.794 371.761 151.146 377.115 157.749 377.115Z" fill="#0F3C8C"/>
<path d="M160.823 378.725C153.346 380.418 145.877 375.718 144.185 368.231C142.492 360.751 147.198 353.286 154.675 351.593C162.151 349.9 169.62 354.6 171.312 362.087C173.005 369.567 168.299 377.032 160.823 378.725ZM155.532 355.397C150.151 356.62 146.766 361.989 147.988 367.373C149.21 372.756 154.576 376.143 159.957 374.921C165.339 373.698 168.724 368.329 167.502 362.945C166.28 357.562 160.914 354.175 155.532 355.397Z" fill="#25AABC"/>
<path d="M202.485 177C209.088 177 214.44 171.645 214.44 165.04C214.44 158.434 209.088 153.08 202.485 153.08C195.883 153.08 190.531 158.434 190.531 165.04C190.531 171.645 195.883 177 202.485 177Z" fill="#0F3C8C"/>
<path d="M205.56 178.61C198.083 180.303 190.614 175.602 188.922 168.115C187.229 160.635 191.935 153.171 199.411 151.477C206.888 149.784 214.357 154.484 216.049 161.972C217.742 169.452 213.036 176.916 205.56 178.61ZM200.269 155.282C194.888 156.504 191.502 161.873 192.724 167.257C193.946 172.641 199.313 176.028 204.694 174.805C210.076 173.583 213.461 168.214 212.239 162.83C211.017 157.446 205.651 154.059 200.269 155.282Z" fill="#25AABC"/>
<path d="M238.144 130.246C244.747 130.246 250.099 124.891 250.099 118.286C250.099 111.68 244.747 106.326 238.144 106.326C231.542 106.326 226.19 111.68 226.19 118.286C226.19 124.891 231.542 130.246 238.144 130.246Z" fill="#0F3C8C"/>
<path d="M241.219 131.848C233.742 133.541 226.273 128.841 224.581 121.353C222.888 113.874 227.594 106.409 235.07 104.716C242.547 103.022 250.016 107.723 251.708 115.21C253.401 122.69 248.695 130.154 241.219 131.848ZM235.928 108.52C230.547 109.743 227.161 115.111 228.383 120.495C229.605 125.879 234.972 129.266 240.353 128.043C245.735 126.821 249.12 121.452 247.898 116.068C246.676 110.684 241.31 107.298 235.928 108.52Z" fill="#25AABC"/>
<path d="M292.999 157.826C299.602 157.826 304.954 152.471 304.954 145.866C304.954 139.26 299.602 133.906 292.999 133.906C286.397 133.906 281.044 139.26 281.044 145.866C281.044 152.471 286.397 157.826 292.999 157.826Z" fill="#0F3C8C"/>
<path d="M296.073 159.428C288.597 161.121 281.128 156.421 279.435 148.934C277.743 141.454 282.449 133.989 289.925 132.296C297.401 130.602 304.87 135.303 306.563 142.79C308.256 150.27 303.55 157.735 296.073 159.428ZM290.783 136.1C285.401 137.323 282.016 142.692 283.238 148.075C284.46 153.459 289.826 156.846 295.208 155.624C300.589 154.401 303.975 149.032 302.753 143.648C301.531 138.264 296.164 134.878 290.783 136.1Z" fill="#25AABC"/>
<path d="M315.869 238.675C322.471 238.675 327.823 233.321 327.823 226.715C327.823 220.11 322.471 214.755 315.869 214.755C309.266 214.755 303.914 220.11 303.914 226.715C303.914 233.321 309.266 238.675 315.869 238.675Z" fill="#0F3C8C"/>
<path d="M318.943 240.285C311.466 241.979 303.997 237.278 302.305 229.791C300.612 222.311 305.318 214.846 312.794 213.153C320.271 211.46 327.74 216.16 329.432 223.647C331.125 231.127 326.419 238.592 318.943 240.285ZM313.652 216.957C308.271 218.18 304.885 223.549 306.108 228.933C307.33 234.317 312.696 237.703 318.077 236.481C323.459 235.258 326.844 229.889 325.622 224.506C324.4 219.122 319.034 215.735 313.652 216.957Z" fill="#25AABC"/>
<path d="M139.327 275.846C151.768 330.718 135.972 384.496 102.302 418.037C106.051 419.966 109.877 421.766 113.763 423.444C155.783 391.52 177.035 331.652 163.16 270.44C148.451 205.552 98.78 159.056 43.2498 152.146C41.0031 155.054 38.8475 158.023 36.7829 161.045C85.0493 174.486 126.173 217.808 139.327 275.839V275.846Z" fill="#E01E7F"/>
<path d="M166.629 80.4995C166.204 82.2233 166.143 84.0533 166.561 85.8986C168.003 92.2621 174.394 96.2411 180.838 94.7756C187.282 93.31 191.328 86.9693 189.886 80.6058C189.726 79.892 189.529 78.9504 189.256 78.2973C181.779 78.5024 174.204 79.406 166.629 80.4919V80.4995Z" fill="#0F3C8C"/>
<path d="M187.108 78.4948C187.373 79.0643 187.586 79.6566 187.745 80.2869C189.074 85.6404 185.795 91.0775 180.443 92.4063C175.092 93.7352 169.65 90.4548 168.322 85.1012C167.904 83.423 167.942 81.7449 168.352 80.1806C166.994 80.3704 165.627 80.5678 164.269 80.7805C164.026 82.489 164.094 84.2659 164.534 86.0429C166.379 93.4846 173.939 98.0408 181.385 96.1956C188.831 94.3503 193.385 86.787 191.533 79.3453C191.449 79.0111 191.343 78.6922 191.237 78.3733C189.863 78.4036 188.489 78.4416 187.108 78.4948Z" fill="#25AABC"/>
<path d="M194.508 337.211C194.508 337.211 192.459 316.085 191.351 309.106C189.005 294.375 182.622 275.125 182.622 275.125L262.57 272.315C262.57 272.315 257.355 281.511 258.653 297.162C259.951 312.812 277.242 331.204 277.242 331.204C277.242 331.204 263.799 337.195 262.046 348.442C260.293 359.688 263.739 369.901 263.739 369.901L194.508 337.218V337.211Z" fill="#E01E7F"/>
<path d="M198.212 333.907L264.953 364.571C266.266 365.17 266.775 366.871 266.084 368.375C265.393 369.878 263.769 370.607 262.456 370L195.715 339.337C194.402 338.737 193.893 337.036 194.584 335.532C195.275 334.029 196.899 333.3 198.212 333.907Z" fill="#AD0B64"/>
<path d="M194.63 304.034L275.504 327.612C277.09 328.075 278.008 329.731 277.553 331.318C277.098 332.905 275.428 333.816 273.834 333.353L192.96 309.775C191.373 309.311 190.455 307.656 190.91 306.069C191.366 304.482 193.036 303.571 194.63 304.034Z" fill="#AD0B64"/>
<path d="M184.709 272.551L259.853 268.442C261.333 268.359 262.6 269.627 262.691 271.275C262.782 272.923 261.651 274.328 260.171 274.411L185.028 278.519C183.548 278.603 182.28 277.335 182.189 275.687C182.098 274.039 183.229 272.634 184.709 272.551Z" fill="#AD0B64"/>
</svg>
