<svg width="80" height="56" viewBox="0 0 80 56" fill="none" xmlns="http://www.w3.org/2000/svg">
<path d="M2.72923 16.897H0.670513C0.299878 16.897 0 16.6004 0 16.2338V0.756532C0 0.38993 0.299878 0.0933167 0.670513 0.0933167H6.79948C7.42282 0.0933167 8.02258 0.173302 8.59875 0.333274C9.17492 0.493245 9.71402 0.719871 10.2161 1.01315C10.7181 1.30643 11.1763 1.65637 11.5908 2.0663C12.0052 2.47622 12.3624 2.93281 12.6555 3.43272C12.952 3.93263 13.1811 4.4692 13.3429 5.0391C13.5046 5.609 13.5855 6.20223 13.5855 6.81878C13.5855 7.39535 13.5114 7.95858 13.3665 8.50515C13.2216 9.05172 13.0127 9.57162 12.7398 10.0649C12.4668 10.5581 12.1333 11.0114 11.739 11.4246C11.4627 11.7112 11.1662 11.9745 10.8461 12.2078C10.5968 12.3911 10.5058 12.7177 10.6271 12.9977L11.9008 15.9705C12.0895 16.4071 11.7626 16.8937 11.2842 16.8937H9.12437C8.85819 16.8937 8.61559 16.737 8.50777 16.4937L7.37902 13.9109C7.2712 13.6676 7.0286 13.5076 6.75904 13.5109L4.06688 13.5276C3.69625 13.5276 3.39974 13.8275 3.39974 14.1908V16.2304C3.39974 16.597 3.09986 16.8937 2.72923 16.8937V16.897ZM3.39974 4.1226V9.52163C3.39974 9.88823 3.69962 10.1848 4.07025 10.1848H6.79948C7.26446 10.1848 7.70248 10.0982 8.11355 9.92156C8.52462 9.74493 8.88515 9.50497 9.19176 9.20169C9.49838 8.89841 9.74098 8.53848 9.91956 8.12855C10.0981 7.71862 10.1857 7.28203 10.1857 6.82211C10.1857 6.3622 10.0981 5.92561 9.91956 5.51568C9.74098 5.10575 9.49838 4.74915 9.19176 4.44254C8.88515 4.13593 8.52462 3.8993 8.11355 3.72267C7.70248 3.54603 7.26446 3.45938 6.79948 3.45938H4.07025C3.69962 3.45938 3.39974 3.756 3.39974 4.1226Z" fill="#2440A8"/>
<path d="M25.3986 16.897H17.1436C16.2069 16.897 15.4488 16.1471 15.4488 15.2206V1.76968C15.4488 0.843183 16.2069 0.0933167 17.1436 0.0933167H25.3986C26.3353 0.0933167 27.0935 0.843183 27.0935 1.76968V1.78301C27.0935 2.70952 26.3353 3.45938 25.3986 3.45938H20.5433C19.6066 3.45938 18.8485 4.20925 18.8485 5.13575V5.14908C18.8485 6.07558 19.6066 6.82545 20.5433 6.82545H22.7334C23.6701 6.82545 24.4283 7.57531 24.4283 8.50182V8.51515C24.4283 9.44165 23.6701 10.1915 22.7334 10.1915H20.5433C19.6066 10.1915 18.8485 10.9414 18.8485 11.8679C18.8485 12.7944 19.6066 13.5442 20.5433 13.5442H25.3986C26.3353 13.5442 27.0935 14.2941 27.0935 15.2206V15.2339C27.0935 16.1604 26.3353 16.9103 25.3986 16.9103V16.897Z" fill="#2440A8"/>
<path d="M39.7658 16.897C39.4019 16.897 39.1088 16.607 39.1088 16.2471V14.1841C39.1088 13.8242 38.8157 13.5343 38.4518 13.5343H32.9663C32.6025 13.5343 32.3093 13.8242 32.3093 14.1841V16.2471C32.3093 16.607 32.0162 16.897 31.6523 16.897H29.5801C29.2162 16.897 28.923 16.607 28.923 16.2471V6.82211C28.923 5.89228 29.1016 5.0191 29.4554 4.20258C29.8092 3.38606 30.2944 2.67286 30.9076 2.06296C31.5209 1.45307 32.2386 0.97316 33.0641 0.623222C33.8896 0.273285 34.7724 0.0966494 35.7124 0.0966494C36.6525 0.0966494 37.5353 0.273285 38.3608 0.623222C39.1863 0.97316 39.9073 1.45641 40.5239 2.06296C41.1405 2.66952 41.6257 3.38606 41.9795 4.20258C42.3333 5.0191 42.5119 5.89228 42.5119 6.82211V16.2471C42.5119 16.607 42.2188 16.897 41.8549 16.897H39.7658ZM38.4518 10.1848C38.8157 10.1848 39.1088 9.8949 39.1088 9.53496V6.82211C39.1088 6.3622 39.0212 5.92561 38.8426 5.51568C38.664 5.10575 38.4214 4.74915 38.1148 4.44254C37.8082 4.13593 37.4443 3.8993 37.0299 3.72267C36.6154 3.54603 36.174 3.45938 35.7091 3.45938C35.2441 3.45938 34.8027 3.54603 34.3882 3.72267C33.9738 3.8993 33.6133 4.13926 33.3033 4.44254C32.9933 4.74582 32.7541 5.10575 32.5755 5.51568C32.3969 5.92561 32.3093 6.3622 32.3093 6.82211V9.53496C32.3093 9.8949 32.6025 10.1848 32.9663 10.1848H38.4518Z" fill="#2440A8"/>
<path d="M42.3468 25.4055C42.5153 26.1587 42.5827 26.9085 42.5422 27.6484C42.5018 28.3883 42.3704 29.1015 42.1446 29.788C41.9189 30.4746 41.6123 31.1211 41.2248 31.731C40.8373 32.3409 40.3757 32.8941 39.8366 33.3874C39.3008 33.8806 38.7011 34.3039 38.0407 34.6538C37.3803 35.0037 36.666 35.2637 35.9045 35.4303L32.562 36.1669C31.6489 36.3668 30.7425 35.8003 30.5404 34.8971L27.582 21.7694C27.3799 20.8663 27.9527 19.9698 28.8658 19.7698L32.2082 19.0333C32.9697 18.8666 33.7278 18.8 34.4758 18.84C35.2239 18.88 35.9483 19.0099 36.6457 19.2332C37.3432 19.4565 37.9969 19.7631 38.6135 20.1497C39.2267 20.5397 39.7827 20.9963 40.2813 21.5228C40.78 22.0494 41.2079 22.6393 41.5617 23.2925C41.9155 23.9457 42.1783 24.6523 42.3468 25.4055ZM39.0279 26.1353C38.8763 25.4555 38.6034 24.8489 38.2092 24.3123C37.8183 23.7758 37.3466 23.3325 36.794 22.9859C36.2414 22.6393 35.6349 22.4027 34.9711 22.276C34.3074 22.1494 33.6335 22.1627 32.9461 22.3127C32.033 22.5126 31.4569 23.4092 31.6624 24.3123L33.1416 30.8778C33.3437 31.781 34.2501 32.3509 35.1632 32.1476C35.8506 31.9976 36.4672 31.7277 37.013 31.3377C37.5622 30.9478 38.0104 30.4812 38.3608 29.938C38.7112 29.3948 38.9471 28.7915 39.0717 28.1383C39.1964 27.4818 39.1796 26.8152 39.0279 26.1387V26.1353Z" fill="#5773DB"/>
<path d="M47.6401 36.3168H45.6118C45.2344 36.3168 44.9244 36.0136 44.9244 35.637V20.1931C44.9244 19.8198 45.231 19.5132 45.6118 19.5132H47.6401C48.0175 19.5132 48.3275 19.8165 48.3275 20.1931V35.637C48.3275 36.0102 48.0209 36.3168 47.6401 36.3168Z" fill="#2440A8"/>
<path d="M63.0047 36.2269H60.454C60.2081 36.2269 59.9823 36.0969 59.8576 35.8903L54.79 27.3351C54.4363 26.7352 53.5063 26.9852 53.5063 27.6784V35.5437C53.5063 35.9203 53.1963 36.2269 52.8156 36.2269H50.7939C50.4132 36.2269 50.1032 35.9203 50.1032 35.5437V20.1064C50.1032 19.7298 50.4132 19.4232 50.7939 19.4232H53.3446C53.5905 19.4232 53.8163 19.5532 53.941 19.7598L59.0086 28.3249C59.3623 28.9248 60.2923 28.6749 60.2923 27.9817V20.1064C60.2923 19.7298 60.6023 19.4232 60.983 19.4232H63.0047C63.3854 19.4232 63.6954 19.7298 63.6954 20.1064V35.5437C63.6954 35.9203 63.3854 36.2269 63.0047 36.2269Z" fill="#2440A8"/>
<path d="M79.9966 33.5907C79.9966 34.0839 79.7641 34.5572 79.3564 34.8404C78.7398 35.2704 78.0727 35.617 77.355 35.8769C76.3846 36.2335 75.3738 36.4102 74.3225 36.4102C73.5173 36.4102 72.7423 36.3069 71.9943 36.1002C71.2463 35.8936 70.5522 35.6003 69.9019 35.2204C69.2549 34.8404 68.6619 34.3872 68.1262 33.8606C67.5904 33.334 67.1322 32.7475 66.7515 32.1043C66.3707 31.4611 66.0776 30.7678 65.8687 30.0246C65.6598 29.2814 65.5553 28.5116 65.5553 27.7151C65.5553 26.9185 65.6598 26.152 65.8687 25.4188C66.0776 24.6856 66.3707 23.9957 66.7515 23.3492C67.1322 22.7026 67.5871 22.1194 68.1262 21.5928C68.6619 21.0662 69.2549 20.613 69.9019 20.2397C70.5488 19.8665 71.2463 19.5732 71.9943 19.3665C72.7389 19.1599 73.5173 19.0566 74.3225 19.0566C75.3738 19.0566 76.3846 19.2332 77.355 19.5898C77.8267 19.7631 78.2749 19.9698 78.7028 20.2164C79.4542 20.6463 79.7001 21.6095 79.252 22.346L79.1138 22.5726C78.6792 23.2892 77.7459 23.5425 77.0147 23.1259C76.8294 23.0192 76.6407 22.9226 76.4419 22.8359C75.7714 22.5426 75.0638 22.396 74.3225 22.396C73.5813 22.396 72.8838 22.536 72.2301 22.8193C71.5765 23.1025 71.007 23.4825 70.5185 23.9624C70.0299 24.4423 69.6424 25.0055 69.356 25.6488C69.0696 26.292 68.9281 26.9818 68.9281 27.7184C68.9281 28.4549 69.0696 29.1548 69.356 29.8047C69.6391 30.4546 70.0265 31.0178 70.5185 31.5044C71.007 31.9876 71.5798 32.3709 72.2301 32.6542C72.8804 32.9375 73.5779 33.0774 74.3225 33.0774C74.7505 33.0774 75.1649 33.0274 75.5659 32.9241C76.2431 32.7542 76.7148 32.1509 76.7148 31.4611V29.2681C76.7148 28.4149 77.4157 27.7217 78.2782 27.7217H78.4366C79.2992 27.7217 80 28.4149 80 29.2681V33.5973L79.9966 33.5907Z" fill="#2440A8"/>
<path d="M14.5761 53.0039C14.5761 53.4971 14.3436 53.9704 13.9359 54.2536C13.3193 54.6836 12.6522 55.0302 11.9345 55.2901C10.9641 55.6467 9.95325 55.8234 8.90199 55.8234C8.0967 55.8234 7.32174 55.7201 6.57373 55.5134C5.82572 55.3068 5.13162 55.0135 4.48132 54.6336C3.83439 54.2536 3.24138 53.8004 2.70564 53.2738C2.1699 52.7472 1.71166 52.1607 1.33092 51.5175C0.950175 50.8743 0.657036 50.181 0.448132 49.4378C0.239228 48.6946 0.134777 47.9248 0.134777 47.1283C0.134777 46.3317 0.239228 45.5652 0.448132 44.832C0.657036 44.0988 0.950175 43.4089 1.33092 42.7624C1.71166 42.1158 2.16653 41.5326 2.70564 41.006C3.24138 40.4794 3.83439 40.0262 4.48132 39.6529C5.12825 39.2797 5.82572 38.9864 6.57373 38.7797C7.31837 38.5731 8.0967 38.4698 8.90199 38.4698C9.95325 38.4698 10.9641 38.6464 11.9345 39.003C12.4062 39.1763 12.8543 39.383 13.2822 39.6296C14.0336 40.0595 14.2796 41.0227 13.8314 41.7592L13.6933 41.9858C13.2586 42.7024 12.3253 42.9557 11.5942 42.5391C11.4088 42.4324 11.2201 42.3358 11.0214 42.2491C10.3508 41.9558 9.64326 41.8092 8.90199 41.8092C8.16072 41.8092 7.46325 41.9492 6.80959 42.2325C6.15592 42.5157 5.58649 42.8957 5.09792 43.3756C4.60936 43.8555 4.22188 44.4187 3.93548 45.062C3.64908 45.7052 3.50756 46.3951 3.50756 47.1316C3.50756 47.8681 3.64908 48.568 3.93548 49.2179C4.21851 49.8678 4.60599 50.431 5.09792 50.9176C5.58649 51.4008 6.15929 51.7841 6.80959 52.0674C7.45988 52.3507 8.15735 52.4906 8.90199 52.4906C9.32991 52.4906 9.74435 52.4406 10.1453 52.3373C10.8226 52.1674 11.2943 51.5641 11.2943 50.8742V48.6813C11.2943 47.8281 11.9951 47.1349 12.8577 47.1349H13.016C13.8786 47.1349 14.5795 47.8281 14.5795 48.6813V53.0105L14.5761 53.0039Z" fill="#2440A8"/>
<path d="M29.1454 55.7967H27.1406C26.7565 55.7967 26.4432 55.4868 26.4432 55.1068V53.1238C26.4432 52.7439 26.1298 52.434 25.7457 52.434H20.3412C19.957 52.434 19.6437 52.7439 19.6437 53.1238V55.1068C19.6437 55.4868 19.3303 55.7967 18.9462 55.7967H16.9515C16.5674 55.7967 16.2541 55.4868 16.2541 55.1068V45.7185C16.2541 44.7887 16.4326 43.9155 16.7864 43.099C17.1402 42.2825 17.6254 41.5692 18.2386 40.9594C18.8519 40.3495 19.5696 39.8695 20.3951 39.5196C21.2206 39.1697 22.1034 38.993 23.0434 38.993C23.9835 38.993 24.8663 39.1697 25.6918 39.5196C26.5173 39.8695 27.2383 40.3528 27.8549 40.9594C28.4715 41.5659 28.9567 42.2825 29.3105 43.099C29.6643 43.9155 29.8429 44.7887 29.8429 45.7185V55.1068C29.8429 55.4868 29.5295 55.7967 29.1454 55.7967ZM25.7457 49.0846C26.1298 49.0846 26.4432 48.7746 26.4432 48.3947V45.7218C26.4432 45.2619 26.3556 44.8253 26.177 44.4154C25.9984 44.0055 25.7558 43.6489 25.4492 43.3423C25.1426 43.0357 24.7787 42.799 24.3642 42.6224C23.9498 42.4458 23.5084 42.3591 23.0434 42.3591C22.5784 42.3591 22.1371 42.4458 21.7226 42.6224C21.3082 42.799 20.9476 43.039 20.6377 43.3423C20.3277 43.6455 20.0884 44.0055 19.9099 44.4154C19.7313 44.8253 19.6437 45.2619 19.6437 45.7218V48.3947C19.6437 48.7746 19.957 49.0846 20.3412 49.0846H25.7457Z" fill="#2440A8"/>
<path d="M65.552 56H63.5303C63.1529 56 62.8463 55.6967 62.8463 55.3235V44.0021C62.8463 43.7689 62.8025 43.5489 62.7115 43.3456C62.6206 43.1423 62.4993 42.9657 62.3443 42.8124C62.1893 42.6591 62.0107 42.5424 61.8052 42.4558C61.5996 42.3691 61.3773 42.3258 61.1414 42.3258C60.9055 42.3258 60.6832 42.3691 60.4776 42.4558C60.2721 42.5424 60.0935 42.6624 59.9385 42.8124C59.7835 42.9623 59.6656 43.1423 59.578 43.3456C59.4904 43.5489 59.4466 43.7689 59.4466 44.0021V55.3235C59.4466 55.6967 59.14 56 58.7626 56H56.7275C56.3501 56 56.0435 55.6967 56.0435 55.3235V44.0021C56.0435 43.7689 55.9997 43.5489 55.9121 43.3456C55.8245 43.1423 55.7032 42.9657 55.5515 42.8124C55.3999 42.6591 55.218 42.5424 55.0124 42.4558C54.8069 42.3691 54.5845 42.3258 54.3487 42.3258C54.1128 42.3258 53.8904 42.3691 53.6849 42.4558C53.4793 42.5424 53.3008 42.6624 53.1458 42.8124C52.9908 42.9623 52.8728 43.1423 52.7852 43.3456C52.6976 43.5489 52.6538 43.7689 52.6538 44.0021V55.3235C52.6538 55.6967 52.3472 56 51.9698 56H49.9347C49.5573 56 49.2507 55.6967 49.2507 55.3235V44.0021C49.2507 43.3056 49.3821 42.6524 49.6483 42.0392C49.9145 41.4259 50.275 40.8894 50.7366 40.4328C51.1982 39.9762 51.7407 39.6163 52.3607 39.3563C52.9807 39.093 53.6411 38.963 54.3453 38.963C54.9787 38.963 55.5852 39.073 56.1681 39.2963C56.5859 39.4563 56.9734 39.6663 57.3306 39.9262C57.5765 40.1062 57.9067 40.1062 58.1527 39.9262C58.5099 39.6663 58.894 39.4563 59.3118 39.2963C59.8913 39.073 60.4978 38.963 61.1313 38.963C61.8355 38.963 62.4959 39.093 63.1159 39.3563C63.7358 39.6196 64.2783 39.9762 64.7399 40.4328C65.2015 40.8894 65.5654 41.4259 65.8282 42.0392C66.0944 42.6524 66.2258 43.3056 66.2258 44.0021V55.3235C66.2258 55.6967 65.9192 56 65.5418 56H65.552Z" fill="#2440A8"/>
<path d="M78.1367 55.8834H69.8816C68.945 55.8834 68.1868 55.1335 68.1868 54.207V40.7561C68.1868 39.8296 68.945 39.0797 69.8816 39.0797H78.1367C79.0734 39.0797 79.8315 39.8296 79.8315 40.7561V40.7694C79.8315 41.6959 79.0734 42.4458 78.1367 42.4458H73.2814C72.3447 42.4458 71.5866 43.1956 71.5866 44.1221V44.1355C71.5866 45.062 72.3447 45.8118 73.2814 45.8118H75.4715C76.4082 45.8118 77.1663 46.5617 77.1663 47.4882V47.5015C77.1663 48.428 76.4082 49.1779 75.4715 49.1779H73.2814C72.3447 49.1779 71.5866 49.9277 71.5866 50.8543C71.5866 51.7808 72.3447 52.5306 73.2814 52.5306H78.1367C79.0734 52.5306 79.8315 53.2805 79.8315 54.207V54.2203C79.8315 55.1468 79.0734 55.8967 78.1367 55.8967V55.8834Z" fill="#2440A8"/>
<path d="M21.8102 19.2399H3.59853C1.61112 19.2399 0 20.8335 0 22.7993V32.6708C0 34.6366 1.61112 36.2302 3.59853 36.2302H21.8102C23.7976 36.2302 25.4088 34.6366 25.4088 32.6708V22.7993C25.4088 20.8335 23.7976 19.2399 21.8102 19.2399Z" fill="#5773DB"/>
<path d="M76.4958 0H47.9535C46.0201 0 44.4527 1.55031 44.4527 3.46272V13.5276C44.4527 15.44 46.0201 16.9903 47.9535 16.9903H76.4958C78.4293 16.9903 79.9966 15.44 79.9966 13.5276V3.46272C79.9966 1.55031 78.4293 0 76.4958 0Z" fill="#5773DB"/>
<path d="M44.8806 38.9864H34.3647C32.9355 38.9864 31.7769 40.1323 31.7769 41.5459V53.4171C31.7769 54.8307 32.9355 55.9767 34.3647 55.9767H44.8806C46.3097 55.9767 47.4683 54.8307 47.4683 53.4171V41.5459C47.4683 40.1323 46.3097 38.9864 44.8806 38.9864Z" fill="#5773DB"/>
</svg>
