<svg width="462" height="514" viewBox="0 0 462 514" fill="none" xmlns="http://www.w3.org/2000/svg">
<path d="M328.344 298.207L14.7648 294.194C5.15904 294.067 -0.161822 282.978 5.75085 275.376L194.465 39.5166C201.168 32.1733 217.821 15.9309 225.944 11.9376C250.827 -0.313318 281.768 -1.20802 301.743 3.56294C306.392 4.67432 319.761 9.92918 319.761 9.92918C405.718 45.2597 448.085 145.68 418.547 234.003C405.579 272.783 369.128 298.729 328.344 298.207Z" fill="#657A8C"/>
<path d="M115.429 238.099C135.084 238.305 151.185 222.493 151.392 202.782C151.598 183.072 135.831 166.927 116.175 166.721C96.5195 166.516 80.4183 182.327 80.2122 202.038C80.0061 221.749 95.773 237.894 115.429 238.099Z" fill="#F7F7F7"/>
<path d="M129.999 224.903C137.36 224.979 143.389 219.058 143.466 211.677C143.544 204.296 137.639 198.249 130.278 198.172C122.918 198.095 116.888 204.017 116.811 211.398C116.734 218.779 122.638 224.826 129.999 224.903Z" fill="#A5195F"/>
<path d="M198.392 239.157C218.047 239.363 234.148 223.551 234.355 203.84C234.561 184.13 218.794 167.984 199.138 167.779C179.483 167.573 163.381 183.385 163.175 203.096C162.969 222.806 178.736 238.952 198.392 239.157Z" fill="#F7F7F7"/>
<path d="M212.962 225.96C220.323 226.037 226.352 220.116 226.429 212.735C226.507 205.353 220.602 199.307 213.241 199.23C205.881 199.153 199.851 205.074 199.774 212.456C199.697 219.837 205.601 225.883 212.962 225.96Z" fill="#A5195F"/>
<path d="M162.629 79.8708C151.763 48.5916 122.291 25.9655 87.3485 25.5223C42.7311 24.9521 6.09963 60.7632 5.52834 105.505C4.9953 147.414 36.278 182.285 76.9056 187.013L162.62 79.8793L162.629 79.8708Z" fill="#7C8C99"/>
<path d="M154.323 90.5238C145.542 74.145 128.393 62.9147 108.544 62.664C79.4248 62.2903 55.5203 85.6629 55.146 114.863C54.8297 139.338 71.1554 160.133 93.595 166.442L154.332 90.5325L154.323 90.5238Z" fill="#A5195F"/>
<path d="M279.845 44.3494C237.691 43.8135 202.677 75.7534 198.463 117.019L266.735 205.466C270.339 206.005 274.023 206.337 277.771 206.385C322.388 206.955 359.02 171.144 359.591 126.402C360.162 81.66 324.453 44.9282 279.836 44.358L279.845 44.3494Z" fill="#7C8C99"/>
<path d="M261.216 88.0732C235.439 87.7432 213.759 106.024 208.86 130.477L257.69 193.733C258.413 193.775 259.128 193.809 259.86 193.816C288.979 194.19 312.883 170.817 313.258 141.617C313.632 112.417 290.326 88.4468 261.207 88.0731L261.216 88.0732Z" fill="#A5195F"/>
<path d="M40.5062 231.942L5.75076 275.384C-0.161822 282.978 5.15895 294.076 14.7647 294.202L78.5075 295.016C76.0339 269.544 62.3415 245.77 40.5062 231.942Z" fill="#A5195F"/>
<path d="M32.345 241.983L1.04923 216.607C-0.0614455 215.706 -0.233906 214.071 0.665302 212.948L1.14547 212.349C2.06199 211.218 3.7182 211.036 4.84593 211.955L36.1075 237.313L32.345 241.983Z" fill="#37434C"/>
<path d="M40.532 231.942L9.23624 206.566C8.12556 205.665 7.9531 204.03 8.85231 202.908L9.33247 202.308C10.249 201.177 11.9052 200.995 13.0329 201.914L44.2945 227.272L40.532 231.942Z" fill="#37434C"/>
<path d="M49.4377 220.742L18.1419 195.367C17.0312 194.465 16.8588 192.83 17.758 191.708L18.2381 191.108C19.1547 189.977 20.8109 189.796 21.9386 190.715L53.2001 216.073L49.4377 220.742Z" fill="#37434C"/>
<path d="M78.7182 278.161L111.219 303.678C112.372 304.589 114.046 304.382 114.954 303.225L115.443 302.608C116.36 301.434 116.154 299.73 114.983 298.81L82.5169 273.319L78.7268 278.169L78.7182 278.161Z" fill="#37434C"/>
<path d="M86.8413 267.644L119.342 293.162C120.496 294.072 122.169 293.865 123.077 292.708L123.566 292.091C124.483 290.917 124.277 289.213 123.106 288.293L90.64 262.802L86.8498 267.653L86.8413 267.644Z" fill="#37434C"/>
<path d="M95.9484 256.135L128.449 281.653C129.603 282.564 131.276 282.357 132.185 281.2L132.673 280.583C133.59 279.409 133.384 277.704 132.213 276.785L99.747 251.293L95.9569 256.144L95.9484 256.135Z" fill="#37434C"/>
<path d="M133.963 295.725L157.49 296.023C157.49 296.023 164.567 277.598 152.824 266.848C152.824 266.848 153.451 275.227 147.518 283.14C141.305 291.43 133.963 295.717 133.963 295.717L133.963 295.725Z" fill="#A5195F"/>
<path d="M298.717 297.828C291.677 292.899 287.206 285.447 287.31 277.128C287.437 267.452 293.694 259.093 302.917 254.61C304.614 253.781 305.726 252.108 305.755 250.216C305.778 247.979 303.571 246.435 301.469 247.19C287.735 252.119 278.052 263.561 277.877 277.012C277.778 284.796 280.9 291.974 286.173 297.68L298.717 297.837L298.717 297.828Z" fill="#7C8C99"/>
<path d="M326.654 513.419C310.302 513.214 292.277 509.967 276.241 500.2C243.766 480.419 232.343 439.855 237.842 410.008C242.857 382.809 267.172 360.512 287.504 353.337C298.47 349.469 309.327 348.537 317.168 348.515C323.364 348.502 328.087 354.09 327.153 360.232C326.348 365.538 321.834 369.491 316.483 369.539C310.538 369.597 302.448 370.342 294.465 373.162C282.168 377.5 262.227 393.423 258.464 413.818C255.194 431.522 260.092 465.755 287.13 482.221C313.688 498.397 351.787 491.986 370.111 485.637C396.945 476.345 420.462 451.3 429.821 431.353C446.406 396.006 440.557 365.436 431.774 337.678C421.707 305.871 388.584 277.202 388.268 276.931L402.983 262.284C404.486 263.544 439.826 293.61 451.761 331.312C461.353 361.636 468.509 398.293 448.795 440.304C437.911 463.501 410.789 493.804 376.96 505.513C373.311 506.779 351.999 513.736 326.662 513.411L326.654 513.419Z" fill="#657A8C"/>
<path d="M224.214 296.876C216.16 308.992 204.537 315.558 207.086 320.64C210.099 326.659 225.545 326.181 239.805 316.23C248.415 310.211 253.624 303.18 256.719 297.294L224.223 296.877L224.214 296.876Z" fill="#657A8C"/>
<path d="M286.82 297.678C278.766 309.794 267.143 316.36 269.692 321.441C272.705 327.46 288.15 326.983 302.411 317.031C311.021 311.013 316.23 303.982 319.324 298.096L286.828 297.678L286.82 297.678Z" fill="#657A8C"/>
<path d="M182.233 296.342C174.179 308.458 162.556 315.024 165.105 320.106C168.118 326.125 183.563 325.647 197.824 315.696C206.434 309.677 211.643 302.646 214.737 296.76L182.241 296.342L182.233 296.342Z" fill="#657A8C"/>
</svg>
