<svg width="482" height="509" viewBox="0 0 482 509" fill="none" xmlns="http://www.w3.org/2000/svg">
<path d="M156.041 502.033L155.627 445.257C155.602 441.376 158.282 438.205 161.622 438.171C164.962 438.138 167.693 441.258 167.727 445.138L168.141 501.914C168.167 505.795 165.486 508.966 162.146 509C158.806 509.034 156.075 505.914 156.041 502.033Z" fill="#231F20"/>
<path d="M128.577 496.545C124.248 496.545 121.187 492.064 122.912 488.04C124.147 485.156 126.015 482.425 128.484 479.931C136.348 471.966 149.869 467.029 163.804 467.029H163.939C179.675 467.062 196.891 474.968 202.725 487.067C204.687 491.143 201.702 495.894 197.229 495.903H196.663C194.43 495.903 192.502 494.516 191.521 492.478C188.249 485.689 175.98 479.644 163.914 479.61H163.804C153.209 479.61 142.8 483.22 137.27 488.826C135.993 490.111 135.046 491.43 134.437 492.766C133.406 495.007 131.283 496.528 128.839 496.528H128.577V496.545Z" fill="#231F20"/>
<path d="M250.01 500.08L249.595 443.304C249.57 439.423 252.25 436.252 255.59 436.218C258.93 436.185 261.661 439.304 261.695 443.185L262.11 499.961C262.135 503.842 259.455 507.013 256.115 507.047C252.775 507.08 250.043 503.961 250.01 500.08Z" fill="#231F20"/>
<path d="M222.545 494.592C218.216 494.592 215.155 490.111 216.88 486.086C218.115 483.203 219.983 480.472 222.452 477.978C230.316 470.013 243.837 465.076 257.772 465.076H257.907C273.643 465.109 290.859 473.015 296.693 485.114C298.655 489.189 295.67 493.941 291.197 493.95H290.631C288.398 493.95 286.47 492.563 285.49 490.525C282.217 483.736 269.948 477.691 257.882 477.657H257.772C247.177 477.657 236.768 481.267 231.238 486.873C229.961 488.158 229.014 489.477 228.405 490.813C227.374 493.053 225.251 494.575 222.808 494.575H222.545V494.592Z" fill="#231F20"/>
<path d="M241.089 422.141L247.321 436.413C250.052 443.422 260.013 444.031 263.226 437.233C263.251 437.182 263.277 437.131 263.293 437.081L287.274 380.339L229.445 395.017L241.08 422.141H241.089Z" fill="#2B388C"/>
<path d="M175.659 422.496L169.427 436.768C166.696 443.777 156.735 444.386 153.522 437.588C153.496 437.537 153.471 437.487 153.454 437.436L126.59 380.694L187.302 395.372L175.667 422.496H175.659Z" fill="#2B388C"/>
<path d="M479.142 452.351L439.189 413.626L368.051 455.91L388.861 490.399C392.057 495.573 395.735 499.513 402.009 499.513C409.552 499.513 415.673 493.933 415.673 487.059C415.673 484.48 415.682 482.747 414.236 480.658L413.822 479.982C415.183 485.08 419.918 488.682 425.381 488.682C431.917 488.682 437.219 483.305 437.219 476.676C437.219 474.495 436.635 472.457 435.637 470.69L435.866 470.597C437.591 475.34 442.377 478.747 448.042 478.747C455.145 478.747 460.903 473.37 460.903 466.741C460.903 466.682 460.886 465.836 460.886 465.777C463.118 467.73 466.23 469.717 469.672 469.717C476.478 469.717 482 464.966 482 459.106C482 456.536 480.935 454.177 479.167 452.342L479.142 452.351Z" fill="#2B388C"/>
<path d="M456.151 429.962L420.984 395.118L352.484 430.08L373.31 464.796C376.6 470.089 379.618 473.142 385.377 473.142C392.302 473.142 397.917 468.035 397.917 461.736C397.917 459.368 397.697 456.933 396.344 455.115C397.595 459.783 401.806 463.224 406.812 463.224C412.807 463.224 417.677 458.303 417.677 452.232C417.677 450.237 417.145 448.368 416.223 446.753L416.435 446.669C418.016 451.006 422.413 454.135 427.604 454.135C434.124 454.135 439.409 449.214 439.409 443.143C439.409 443.084 439.409 443.033 439.4 442.974C441.455 444.758 444.304 445.874 447.45 445.874C453.699 445.874 458.764 441.528 458.764 436.159C458.764 433.8 457.783 431.644 456.159 429.962H456.151Z" fill="#0A110A"/>
<path d="M428.738 402.702L393.004 368.079L333.958 400.098L353.829 432.337L354.361 433.293C356.627 437.089 360.027 440.615 365.193 440.615C371.408 440.615 376.448 436.134 376.448 430.596C376.448 428.524 375.737 426.588 374.52 424.99L375.035 424.779C376.16 428.879 379.94 431.898 384.438 431.898C389.824 431.898 394.188 427.577 394.188 422.242C394.188 420.492 393.706 418.852 392.885 417.431L393.071 417.355C394.492 421.168 398.441 423.908 403.1 423.908C408.951 423.908 413.695 419.587 413.695 414.252C413.695 414.201 413.695 414.151 413.695 414.1C415.538 415.672 418.092 416.645 420.924 416.645C426.531 416.645 431.08 412.823 431.08 408.114C431.08 406.042 430.2 404.148 428.746 402.677L428.738 402.702Z" fill="#2B388C"/>
<path d="M401.087 376.001L364.474 340.583L316.81 372.103L335.793 403.083C337.797 406.456 340.764 409.568 345.305 409.568C350.759 409.568 355.19 405.594 355.19 400.699C355.19 398.864 354.564 397.156 353.499 395.735L353.955 395.549C354.945 399.185 358.259 401.857 362.208 401.857C366.935 401.857 370.765 398.027 370.765 393.309C370.765 391.753 370.343 390.307 369.615 389.047L369.776 388.98C371.019 392.353 374.486 394.788 378.578 394.788C383.719 394.788 387.88 390.958 387.88 386.24C387.88 386.198 387.88 386.156 387.88 386.105C389.495 387.492 391.744 388.354 394.23 388.354C399.151 388.354 403.142 384.972 403.142 380.804C403.142 378.969 402.373 377.295 401.096 375.984L401.087 376.001Z" fill="#0A110A"/>
<path d="M375.408 350.644L373.852 349.165L348.51 325.947L304.625 352.564L317.917 374.538C319.668 377.388 322.306 380.347 326.314 380.347C331.133 380.347 335.04 376.796 335.04 372.408C335.04 370.759 334.49 369.237 333.552 367.969L333.949 367.8C334.82 371.047 337.754 373.439 341.238 373.439C345.415 373.439 348.797 370.015 348.797 365.787C348.797 364.401 348.425 363.099 347.783 361.974L347.926 361.915C349.026 364.934 352.087 367.106 355.697 367.106C360.238 367.106 363.916 363.682 363.916 359.455C363.916 359.412 363.916 359.379 363.916 359.336C365.345 360.579 367.324 361.349 369.522 361.349C373.869 361.349 377.395 358.322 377.395 354.593C377.395 352.953 376.777 352.107 375.408 350.636V350.644Z" fill="#2B388C"/>
<path d="M160.853 140.688L157.826 6.39557C67.1974 27.8123 0 106.157 0 199.544C0 309.426 93.0295 398.5 207.782 398.5C267.521 398.5 321.367 374.352 359.266 335.704L160.853 140.688Z" fill="#0A110A"/>
<path d="M168.243 147.942C207.19 169.832 240.548 180.816 294.613 187.512C318.391 190.454 341.788 187.783 363.908 183.902C366.91 183.377 368.262 179.201 365.683 177.586C326.026 152.795 266.726 133.078 241.833 131.455C219.434 130 194.726 138.743 168.243 147.942Z" fill="#FFB00B"/>
<path d="M219.738 133.788C250.644 152.246 266.929 161.132 311.652 175.091C331.319 181.23 345.254 184.147 364.035 183.952C366.614 183.927 370.14 178.685 365.667 175.937C334.888 157.014 292.542 142.624 271.791 137.094C243.761 129.637 237.546 130.719 219.747 133.788H219.738Z" fill="#E91C24"/>
<path d="M361.27 63.3998C323.227 22.2489 268.308 -3.20095 207.342 0.324818C196.409 0.958949 166.628 4.89056 159.119 5.89672C158.13 6.032 157.403 6.88596 157.42 7.88366L160.396 139.631C160.405 140.138 160.616 140.629 160.98 140.984L168.082 147.968C168.649 148.526 169.486 148.678 170.213 148.373C195.893 137.492 224.313 131.438 254.204 131.438C280.712 131.438 306.045 136.207 329.349 144.873C330.922 113.023 343.377 82.3053 361.27 63.4082V63.3998Z" fill="#FFE833"/>
<path d="M414.794 198.893V198.952C414.794 200.736 412.587 201.581 411.386 200.254C389.3 175.7 361.041 156.634 328.943 144.721C330.246 111.83 342.616 82.4575 361.27 63.3828C394.517 99.5114 414.786 147.672 414.786 198.901L414.794 198.893Z" fill="#0A110A"/>
<path d="M276.078 113.885C276.078 76.8941 290.047 44.1814 311.457 24.1766C280.822 7.15653 245.257 -1.86505 207.342 0.333273C196.409 0.967404 166.628 4.89902 159.119 5.90517C158.13 6.04046 157.403 6.89442 157.42 7.89212L160.396 139.639C160.405 140.147 160.616 140.637 160.98 140.992L168.082 147.976C168.649 148.534 169.486 148.686 170.213 148.382C195.893 137.5 224.313 131.446 254.204 131.446C262.017 131.446 269.728 131.861 277.321 132.664C276.518 126.559 276.078 120.294 276.078 113.894V113.885Z" fill="#E91C24"/>
<path d="M216.085 101.93C216.085 60.0769 233.825 23.6355 260.055 4.58618C243.211 0.823668 225.547 -0.723613 207.342 0.324818C196.409 0.958949 166.619 4.88211 159.119 5.89672C158.121 6.032 157.394 6.87751 157.428 7.87521L160.396 139.631C160.413 140.13 160.624 140.629 160.988 140.975L168.099 147.968C168.657 148.509 169.494 148.678 170.23 148.356C185.814 141.753 202.421 136.942 219.747 134.169C217.379 123.955 216.094 113.141 216.094 101.921L216.085 101.93Z" fill="#FFB00B"/>
<path d="M338.549 315.065L159.542 139.132C160.278 165.715 160.853 191.3 160.853 206.908C160.853 227.023 154.156 245.396 143.121 259.465C173.595 299.838 222.689 326.049 278.066 326.049C299.391 326.049 319.786 322.151 338.549 315.065Z" fill="#2B388C"/>
<path d="M236.362 214.754L230.299 208.667C231.872 211.888 232.498 214.822 231.711 218.728C230.274 225.856 224.279 231.402 217.058 232.239C211.807 232.848 207.038 231.089 203.571 227.936C202.463 226.93 200.747 227.014 199.681 228.063C198.59 229.136 198.667 230.929 199.867 231.876C204.763 235.723 207.486 242.166 206.023 248.989C204.518 255.998 198.582 261.426 191.471 262.272C185.484 262.982 180.098 260.615 176.572 256.607C175.067 254.899 172.454 254.781 170.822 256.37C169.452 257.715 169.461 259.862 170.729 261.291C174.052 265.045 175.743 270.245 174.754 275.732C173.984 279.977 171.769 283.545 168.471 286.073L171.989 289.125C175.599 286.098 178.094 282.057 179.125 277.28C180.182 272.367 179.514 267.607 177.612 263.515C180.749 265.544 184.436 266.804 188.435 266.973C199.926 267.455 210.023 258.484 210.927 247.01C211.232 243.113 210.488 239.375 208.932 236.078C213.041 237.279 217.624 237.414 222.605 235.41C229.986 232.442 235.508 225.822 236.464 217.916C236.624 216.623 236.413 216.014 236.345 214.763L236.362 214.754Z" fill="#0A110A"/>
<path d="M218.876 197.438C217.573 198.047 216.812 198.225 215.358 198.478C210.209 199.374 205.397 197.912 201.795 195.003C200.645 194.073 198.954 194.259 197.965 195.35C196.95 196.466 197.128 198.233 198.371 199.095C203.427 202.604 206.48 208.793 205.423 215.6C204.332 222.584 198.785 228.265 191.809 229.5C185.932 230.54 180.487 228.511 176.775 224.757C175.194 223.159 172.606 223.184 171.084 224.85C169.807 226.245 169.943 228.358 171.27 229.703C174.762 233.212 176.732 238.234 176.056 243.696C175.151 251.069 169.308 257.106 161.952 258.23C155.61 259.203 149.793 256.607 146.191 252.16L143.121 255.533C147.772 260.902 155.027 263.963 162.916 262.661C171.896 261.181 179.066 253.944 180.461 244.964C181.222 240.06 180.301 235.418 178.187 231.495C181.4 233.322 185.112 234.353 189.078 234.294C200.451 234.116 209.921 224.723 210.158 213.368C210.242 209.504 209.287 205.868 207.57 202.714C211.697 203.661 216.229 203.543 221.04 201.285C221.615 201.015 221.641 201.015 222.19 200.693L218.876 197.438Z" fill="#0A110A"/>
<path d="M251.219 229.229C249.959 229.779 249.282 229.906 247.896 230.134C242.687 230.971 237.85 229.424 234.257 226.439C233.098 225.475 231.382 225.619 230.358 226.718C229.31 227.843 229.479 229.635 230.731 230.531C235.779 234.167 238.772 240.475 237.605 247.349C236.404 254.417 230.714 260.09 223.645 261.24C217.666 262.213 212.17 260.057 208.475 256.176C206.902 254.527 204.315 254.578 202.768 256.235C201.457 257.638 201.558 259.778 202.894 261.156C206.378 264.758 208.298 269.881 207.537 275.411C206.513 282.868 200.518 288.905 193.069 289.945C186.643 290.842 178.001 289.802 174.864 285.422L172.006 289.125C176.944 294.249 185.983 295.669 193.982 294.46C203.08 293.091 210.428 285.853 211.967 276.772C212.813 271.818 211.942 267.091 209.862 263.084C213.084 264.977 216.821 266.077 220.829 266.068C232.329 266.051 242.027 256.658 242.433 245.159C242.569 241.244 241.664 237.549 239.964 234.319C244.124 235.334 248.707 235.283 253.595 233.06C254.136 232.814 254.119 232.873 254.635 232.586L251.219 229.229Z" fill="#0A110A"/>
<path d="M265.001 242.774C265.517 244.119 265.475 245.277 265.204 246.706C263.877 253.859 257.966 259.49 250.762 260.437C245.528 261.122 240.742 259.439 237.233 256.353C236.1 255.356 234.383 255.449 233.326 256.522C232.244 257.622 232.371 259.414 233.597 260.344C238.544 264.115 241.351 270.507 239.99 277.347C238.594 284.382 232.743 289.895 225.64 290.842C219.637 291.645 214.208 289.337 210.623 285.354C209.101 283.663 206.513 283.638 204.915 285.253C203.571 286.614 203.605 288.762 204.898 290.174C208.281 293.877 210.048 299.051 209.135 304.547C208.763 306.796 208.044 308.716 206.869 310.584L211.105 312.453C212.323 310.407 213.058 308.428 213.532 306.027C214.513 301.098 213.777 296.346 211.815 292.287C214.978 294.274 218.69 295.475 222.698 295.585C234.189 295.889 244.158 286.775 244.885 275.284C245.131 271.378 244.327 267.658 242.721 264.386C246.847 265.519 251.43 265.595 256.385 263.515C263.395 260.572 268.333 254.73 269.517 247.273L265.01 242.774H265.001Z" fill="#0A110A"/>
<path d="M300.583 277.745C299.687 284.982 294.63 290.622 287.756 292.237C281.845 293.623 276.231 291.738 272.307 287.95C270.641 286.343 268.062 286.555 266.617 288.373C265.399 289.903 265.627 292.118 267.039 293.463C270.734 296.98 272.958 302.163 272.544 307.938C271.977 315.733 266.363 322.371 258.998 323.909C258.017 324.112 256.96 324.391 255.861 324.696L267.005 325.626C272.502 322.041 276.341 315.962 277.059 309.062C277.6 303.871 276.442 299.035 274.125 295.01C277.457 296.769 281.253 297.673 285.253 297.411C294.436 296.811 301.987 290.402 304.532 281.609L300.591 277.736L300.583 277.745Z" fill="#0A110A"/>
<path d="M161.639 211.009C161.326 255.279 128.713 290.943 88.8017 290.656C48.8824 290.377 15.2794 254.223 17.089 209.986C22.8135 70.4851 158.231 42.1268 158.231 42.1268C158.231 42.1268 161.943 166.738 161.631 211L161.639 211.009Z" fill="#F7F7F7"/>
<path d="M98.3313 114.452C118.337 114.452 134.555 98.2611 134.555 78.2892C134.555 58.3172 118.337 42.1268 98.3313 42.1268C78.3252 42.1268 62.1071 58.3172 62.1071 78.2892C62.1071 98.2611 78.3252 114.452 98.3313 114.452Z" fill="#FFB00B"/>
<path d="M84.2525 100.923C91.7431 100.923 97.8155 94.8591 97.8155 87.3784C97.8155 79.8977 91.7431 73.8333 84.2525 73.8333C76.7619 73.8333 70.6896 79.8977 70.6896 87.3784C70.6896 94.8591 76.7619 100.923 84.2525 100.923Z" fill="#2B388C"/>
<path d="M284.889 262.39L281.414 258.915C280.932 259.093 280.442 259.253 279.993 259.355C274.844 260.505 269.931 259.253 266.151 256.497C264.934 255.609 263.234 255.854 262.27 257.013C261.289 258.197 261.577 259.972 262.879 260.801C268.139 264.124 271.512 270.237 270.768 277.17C269.999 284.297 264.663 290.309 257.679 291.89C251.768 293.226 246.154 291.408 242.23 287.764C240.565 286.217 237.986 286.42 236.54 288.17C235.322 289.649 235.55 291.78 236.962 293.074C240.658 296.456 242.881 301.461 242.467 307.016C242.044 312.656 238.569 317.517 233.834 320.291L238.933 321.567C243.346 318.042 246.348 313.916 246.974 308.098C247.515 303.101 246.357 298.434 244.04 294.562C247.371 296.253 251.168 297.124 255.167 296.879C266.642 296.16 275.757 286.191 275.453 274.684C275.351 270.769 274.218 267.134 272.324 264.022C276.248 264.732 280.484 264.462 284.889 262.399V262.39Z" fill="#0A110A"/>
</svg>
